<?xml version="1.0" encoding="UTF-8"?>
<svg id="Calque_1" xmlns="http://www.w3.org/2000/svg" xmlns:xlink="http://www.w3.org/1999/xlink" viewBox="0 0 90.7007 126.7665">
  <defs>
    <linearGradient id="Dégradé_sans_nom_3" data-name="Dégradé sans nom 3" x1="84.0577" y1="90.5913" x2="31.5281" y2="38.0618" gradientUnits="userSpaceOnUse">
      <stop offset="0" stop-color="#e4003a"/>
      <stop offset=".0725" stop-color="#e40934"/>
      <stop offset=".193" stop-color="#e62223"/>
      <stop offset=".3458" stop-color="#e94b09"/>
      <stop offset=".3957" stop-color="#eb5b00"/>
      <stop offset=".598" stop-color="#eb5d00"/>
      <stop offset=".7115" stop-color="#ed6500"/>
      <stop offset=".803" stop-color="#f07300"/>
      <stop offset=".8828" stop-color="#f58700"/>
      <stop offset=".9543" stop-color="#faa000"/>
      <stop offset=".9944" stop-color="#ffb200"/>
    </linearGradient>
  </defs>
  <path id="logoMark" d="M26.7587,88.9224c-2.2643-2.7715-5.3852-7.153-7.8553-13.112-2.5904-6.2488-4.7698-11.2262-3.5603-16.926,2.0207-9.5226,11.3658-15.51,17.2556-19.2837,3.3685-2.1582,7.9442-4.5474,10.5593-5.9129,4.2036-2.1949,17.0435-8.8538,18.0153-10.7247,1.4374-2.7671.1965-6.1389-.6618-7.9632,2.0598.6461,6.7593,2.4333,10.4613,7.0513,4.5066,5.6217,5.8745,13.3673,3.7455,19.7463-2.2816,6.8359-8.0429,10.4955-14.5918,14.6555-4.6381,2.9462-19.7162,12.2233-21.9752,14.068-4.5004,3.6752-6.7825,5.5641-8.3445,8.0783-1.2426,2.0002-2.8129,5.3555-3.0481,10.323ZM48.4554,100.3008c1.2467-2.8032,3.31-4.3478,4.9443-5.5376,9.0207-6.5672,10.9356-6.6651,14.7009-10.0863,3.0263-2.7497,6.3689-5.7868,7.2516-10.6796.937-5.1942-1.3441-10.009-2.5051-12.4595-1.2287-2.5935-2.6449-4.5328-3.6917-5.8013-.0318,1.1112-.2333,2.8611-1.1866,4.6806-.5336,1.0184-1.3878,2.2211-4.2172,4.3965-2.6252,2.0184-4.3063,2.8409-7.3854,4.701-1.5495.936-4.2607,2.5738-6.2566,4.0532-3.4898,2.5868-9.027,6.6911-10.2243,13.2187-.8538,4.6547.8312,8.6502,2.1096,11.6025,1.7156,3.9621,3.9878,6.7345,5.5376,8.3723-.1641-1.516-.1977-3.9407.9229-6.4605ZM63.3002,108.8426c.5642-1.2686,1.498-1.9677,2.2376-2.5061,4.0825-2.9721,4.9491-3.0164,6.6532-4.5648,1.3696-1.2444,2.8824-2.6189,3.2819-4.8333.4241-2.3508-.6083-4.5298-1.1337-5.6388-.5561-1.1738-1.197-2.0514-1.6708-2.6255-.0144.5029-.1056,1.2949-.537,2.1183-.2415.4609-.6281,1.0052-1.9086,1.9897-1.1881.9135-1.9489,1.2857-3.3424,2.1275-.7013.4236-1.9283,1.1648-2.8316,1.8344-1.5794,1.1707-4.0853,3.0282-4.6272,5.9824-.3864,2.1066.3762,3.9148.9547,5.251.7764,1.7931,1.8048,3.0478,2.5061,3.7891-.0743-.6861-.0895-1.7835.4177-2.9238Z" style="fill: url(#Dégradé_sans_nom_3);"/>
</svg>