<?xml version="1.0" encoding="UTF-8"?>
<svg id="Calque_1" xmlns="http://www.w3.org/2000/svg" viewBox="0 0 430.874 106.8716">
  <g id="type">
    <path id="type__x3C_CompoundPathItem_x3E_" d="M49.0361,25.2109h-24.4893v16.271h23.6592v9.1313h-23.6592v23.5762h-9.5469V16.0791h34.0361v9.1318Z" style="fill: #fff;"/>
    <path id="type__x3C_CompoundPathItem_x3E_-2" data-name="type__x3C_CompoundPathItem_x3E_" d="M64.2695,24.7544c-1.1357,1.1348-2.4775,1.7017-4.0264,1.7017-1.5498,0-2.8926-.5669-4.0264-1.7017-1.1348-1.1338-1.7021-2.4761-1.7021-4.0264,0-1.5488.5527-2.8911,1.6602-4.0264,1.1064-1.1333,2.4619-1.7017,4.0684-1.7017,1.6045,0,2.96.5684,4.0674,1.7017,1.1064,1.1353,1.6602,2.4775,1.6602,4.0264,0,1.5503-.5674,2.8926-1.7012,4.0264ZM55.7598,74.1895v-41.5073h8.9658v41.5073h-8.9658Z" style="fill: #fff;"/>
    <path id="type__x3C_CompoundPathItem_x3E_-3" data-name="type__x3C_CompoundPathItem_x3E_" d="M82.4062,39.6553c2.2686-5.147,6.5303-7.7202,12.7842-7.7202v9.7129c-3.4316-.2207-6.4199.5952-8.9648,2.4487-2.5469,1.855-3.8193,4.9121-3.8193,9.1729v20.9199h-8.9658v-41.5073h8.9658v6.9731Z" style="fill: #fff;"/>
    <path id="type__x3C_CompoundPathItem_x3E_-4" data-name="type__x3C_CompoundPathItem_x3E_" d="M105.3184,57.2544c.6641,3.1548,2.1855,5.5762,4.5654,7.2637,2.3789,1.689,5.2852,2.5322,8.7168,2.5322,4.7588,0,8.3291-1.7148,10.709-5.147l7.3887,4.3169c-4.0967,6.0327-10.1562,9.0483-18.1807,9.0483-6.7529,0-12.2031-2.061-16.3535-6.1846-4.1514-4.1221-6.2266-9.3389-6.2266-15.6479,0-6.1978,2.0469-11.3862,6.1436-15.5654,4.0947-4.1782,9.3516-6.2676,15.7725-6.2676,6.0869,0,11.083,2.1309,14.9844,6.3921,3.9014,4.2622,5.8525,9.4365,5.8525,15.5239,0,.9414-.1113,2.1865-.332,3.7354h-33.04ZM105.2354,49.9492h24.4062c-.6094-3.375-2.0068-5.9214-4.1924-7.6372-2.1865-1.7148-4.7461-2.5737-7.6787-2.5737-3.3203,0-6.0889.9131-8.3018,2.7397-2.2139,1.8262-3.625,4.3164-4.2334,7.4712Z" style="fill: #fff;"/>
    <path id="type__x3C_CompoundPathItem_x3E_-5" data-name="type__x3C_CompoundPathItem_x3E_" d="M179.9473,16.0791h9.5469v58.1104h-9.5469v-25.1533h-24.9043v25.1533h-9.5469V16.0791h9.5469v23.8252h24.9043v-23.8252Z" style="fill: #fff;"/>
    <path id="type__x3C_CompoundPathItem_x3E_-6" data-name="type__x3C_CompoundPathItem_x3E_" d="M218.4658,75.2686c-6.0889,0-11.2627-2.1025-15.5234-6.3091-4.2627-4.2051-6.3926-9.3804-6.3926-15.5234s2.1299-11.3174,6.3926-15.5239c4.2607-4.2051,9.4346-6.3091,15.5234-6.3091,6.1436,0,11.332,2.104,15.5654,6.3091,4.2334,4.2065,6.3506,9.3804,6.3506,15.5239s-2.1172,11.3184-6.3506,15.5234c-4.2334,4.2065-9.4219,6.3091-15.5654,6.3091ZM209.251,62.8164c2.4912,2.4907,5.5625,3.7358,9.2148,3.7358s6.7246-1.2451,9.2148-3.7358c2.4902-2.4902,3.7354-5.6162,3.7354-9.3804s-1.2451-6.8906-3.7354-9.3809-5.5625-3.7358-9.2148-3.7358-6.7236,1.2456-9.2148,3.7358c-2.4902,2.4902-3.7354,5.6177-3.7354,9.3809s1.2451,6.8901,3.7354,9.3804Z" style="fill: #fff;"/>
    <path id="type__x3C_CompoundPathItem_x3E_-7" data-name="type__x3C_CompoundPathItem_x3E_" d="M254.0791,44.0825c0,1.3672.7666,2.4463,2.2998,3.2373,1.5332.7925,3.374,1.519,5.5205,2.1807s4.3467,1.3398,6.5996,2.0337,4.1348,1.978,5.6455,3.854c1.5098,1.8755,2.2656,4.2412,2.2656,7.0962,0,3.9849-1.5361,7.1118-4.6074,9.3809-3.0713,2.2695-6.9316,3.4033-11.5801,3.4033-4.0967,0-7.6104-.8584-10.543-2.5732-2.9346-1.7148-5.0645-4.0952-6.3926-7.1392l7.7207-4.4829c1.4385,3.9844,4.5098,5.9771,9.2148,5.9771s7.0557-1.5503,7.0557-4.6504c0-1.3281-.7607-2.4072-2.2822-3.2373-1.5234-.8301-3.3574-1.5762-5.5039-2.2378-2.1465-.6611-4.3467-1.3398-6.5996-2.0337-2.2529-.6924-4.1406-1.939-5.6621-3.7383-1.5225-1.7979-2.2832-4.0806-2.2832-6.8486,0-3.8188,1.4531-6.8901,4.3584-9.2148,2.9053-2.3242,6.5166-3.4863,10.834-3.4863,3.4307,0,6.4873.7612,9.1729,2.2827,2.6836,1.5229,4.7451,3.6396,6.1846,6.3506l-7.5547,4.2339c-1.4395-3.1548-4.04-4.7319-7.8027-4.7319-1.7168,0-3.1553.3696-4.3174,1.1064-1.1621.7383-1.7432,1.8174-1.7432,3.2378Z" style="fill: #fff;"/>
    <path id="type__x3C_CompoundPathItem_x3E_-8" data-name="type__x3C_CompoundPathItem_x3E_" d="M304.1377,41.3154h-10.293v19.9238c0,1.7158.3857,2.9468,1.1621,3.6938.7744.7476,1.9219,1.1626,3.4443,1.2456,1.5215.083,3.417.0698,5.6865-.0415v8.0522c-6.8623.8301-11.7881.2349-14.7764-1.7847s-4.4824-5.7412-4.4824-11.1655v-19.9238h-7.6377v-8.6333h7.6377v-8.9653l8.9658-2.6567v11.6221h10.293v8.6333Z" style="fill: #fff;"/>
    <path id="type__x3C_CompoundPathItem_x3E_-9" data-name="type__x3C_CompoundPathItem_x3E_" d="M319.1221,24.7544c-1.1357,1.1348-2.4775,1.7017-4.0264,1.7017-1.5498,0-2.8926-.5669-4.0264-1.7017-1.1348-1.1338-1.7021-2.4761-1.7021-4.0264,0-1.5488.5527-2.8911,1.6602-4.0264,1.1064-1.1333,2.4619-1.7017,4.0684-1.7017,1.6045,0,2.96.5684,4.0674,1.7017,1.1064,1.1353,1.6602,2.4775,1.6602,4.0264,0,1.5503-.5674,2.8926-1.7012,4.0264ZM310.6123,74.1895v-41.5073h8.9658v41.5073h-8.9658Z" style="fill: #fff;"/>
    <path id="type__x3C_CompoundPathItem_x3E_-10" data-name="type__x3C_CompoundPathItem_x3E_" d="M350.126,31.603c4.7598,0,8.6055,1.5229,11.5391,4.5659,2.9326,3.0439,4.4004,7.2222,4.4004,12.5352v25.4854h-8.9658v-24.5723c0-3.0986-.8301-5.479-2.4902-7.1392-1.6602-1.6606-3.9307-2.4907-6.8076-2.4907-3.1543,0-5.7012.9834-7.6377,2.9473-1.9375,1.9648-2.9053,4.9678-2.9053,9.0068v22.248h-8.9658v-41.5073h8.9658v5.313c2.7109-4.2612,7.001-6.3921,12.8672-6.3921Z" style="fill: #fff;"/>
    <path id="type__x3C_CompoundPathItem_x3E_-11" data-name="type__x3C_CompoundPathItem_x3E_" d="M407.0742,32.6821h8.7998v39.5981c0,6.3091-2.0752,11.1509-6.2266,14.5273-4.1504,3.375-9.1865,5.064-15.1084,5.064-9.5752,0-16.1328-3.3491-19.6738-10.0449l7.7197-4.4824c2.1582,4.2607,6.1973,6.3921,12.1201,6.3921,3.873,0,6.9033-1.0107,9.0898-3.0303,2.1865-2.021,3.2793-4.8291,3.2793-8.4258v-5.064c-3.376,4.8149-8.1914,7.2222-14.4443,7.2222-5.8672,0-10.8203-2.0884-14.8594-6.2676-4.041-4.1777-6.0605-9.2275-6.0605-15.1504s2.0195-10.9707,6.0605-15.1499c4.0391-4.1782,8.9922-6.2676,14.8594-6.2676,6.2529,0,11.0684,2.4072,14.4443,7.2222v-6.1431ZM384.4531,62.3184c2.5176,2.4902,5.6582,3.7358,9.4219,3.7358s6.9033-1.2456,9.4219-3.7358c2.5176-2.4902,3.7773-5.5894,3.7773-9.2979s-1.2598-6.8071-3.7773-9.2974c-2.5186-2.4907-5.6592-3.7358-9.4219-3.7358s-6.9043,1.2451-9.4219,3.7358c-2.5195,2.4902-3.7773,5.5903-3.7773,9.2974s1.2578,6.8076,3.7773,9.2979Z" style="fill: #fff;"/>
  </g>
</svg>