<?xml version="1.0" standalone="no"?>
<!DOCTYPE svg PUBLIC "-//W3C//DTD SVG 20010904//EN"
 "http://www.w3.org/TR/2001/REC-SVG-20010904/DTD/svg10.dtd">
<svg version="1.0" xmlns="http://www.w3.org/2000/svg"
 width="1024.000000pt" height="1024.000000pt" viewBox="0 0 1024.000000 1024.000000"
 preserveAspectRatio="xMidYMid meet">

<g transform="translate(0.000000,1024.000000) scale(0.100000,-0.100000)"
fill="#000000" stroke="none">
<path d="M4322 9825 c-268 -30 -689 -120 -913 -195 -300 -100 -651 -252 -864
-375 -154 -88 -329 -218 -497 -367 -42 -37 -78 -68 -81 -68 -3 0 -15 38 -28
85 -29 110 -49 142 -106 167 -165 73 -420 -90 -519 -332 -29 -72 -46 -177 -38
-230 10 -61 73 -113 179 -146 22 -6 39 -16 38 -22 -1 -5 -45 -72 -96 -148
-182 -269 -373 -622 -452 -837 -89 -243 -130 -478 -123 -710 4 -146 6 -157 46
-275 23 -67 54 -144 69 -169 40 -69 149 -180 188 -193 l33 -11 5 -182 c4 -161
7 -192 31 -270 54 -179 134 -313 268 -453 187 -195 364 -295 643 -364 l109
-27 12 -65 c30 -159 101 -337 154 -381 17 -15 35 -27 40 -27 13 0 102 -148 96
-159 -3 -5 -88 -57 -188 -117 -300 -177 -477 -299 -510 -352 -30 -48 -36 -169
-13 -267 20 -85 19 -90 -36 -211 -42 -92 -105 -305 -128 -429 -35 -187 -63
-496 -59 -640 3 -108 7 -138 26 -179 l22 -48 -21 -122 c-32 -182 -15 -275 74
-408 124 -186 438 -408 601 -425 50 -5 65 -12 109 -50 29 -25 87 -61 130 -81
l79 -37 -8 -60 c-4 -33 -8 -109 -9 -170 -1 -78 -6 -119 -17 -140 -9 -16 -34
-91 -57 -165 -23 -74 -44 -143 -47 -152 -5 -17 18 -18 382 -18 l387 0 78 79
79 80 47 -15 c27 -9 55 -18 63 -21 8 -4 19 -5 23 -4 4 1 17 -5 28 -13 20 -14
19 -15 -23 -60 l-45 -46 398 0 c373 0 397 1 393 17 -9 37 12 48 82 47 53 -1
78 -8 126 -33 l61 -31 603 0 c477 0 604 3 604 13 0 9 2 9 9 -1 7 -11 9 -11 14
2 4 9 13 13 21 10 8 -3 17 -1 20 5 4 6 20 8 35 5 16 -4 32 -1 35 5 4 6 23 11
42 11 28 0 36 -5 44 -25 l10 -25 261 0 262 0 -27 26 c-34 35 -33 52 7 68 64
27 72 27 102 1 17 -13 45 -36 63 -50 17 -15 30 -31 26 -36 -3 -5 92 -9 231 -9
196 0 236 2 232 14 -12 29 -38 214 -35 242 2 21 9 30 26 32 13 2 30 -2 37 -8
16 -13 19 -25 56 -183 l22 -97 53 0 52 0 -24 71 c-13 38 -31 98 -40 132 -9 34
-25 83 -36 109 -17 39 -18 51 -8 63 9 11 11 51 9 142 l-4 128 95 32 c136 46
327 144 387 197 30 27 64 72 84 111 26 49 40 66 60 70 15 4 49 20 75 37 170
107 306 290 351 472 14 60 15 80 4 153 -16 117 -51 219 -115 347 -43 84 -53
112 -46 126 16 31 11 85 -19 213 -81 336 -276 765 -424 934 -30 34 -31 38 -28
119 2 75 -1 89 -25 133 -40 75 -150 156 -447 332 -32 18 -67 43 -78 55 l-20
21 52 84 c29 46 78 125 109 174 32 50 62 104 68 120 29 77 54 210 59 323 5 95
9 122 20 122 21 0 91 38 168 92 92 64 235 205 297 293 65 91 133 236 165 355
23 82 26 114 26 240 0 174 -20 262 -93 405 -86 169 -194 285 -325 350 -76 37
-181 65 -252 65 -63 0 -176 -26 -256 -60 -39 -16 -73 -28 -75 -25 -3 2 0 30 6
62 6 32 19 128 29 213 20 178 23 183 119 219 132 50 240 120 364 239 156 148
163 158 161 235 -1 57 2 66 53 151 87 143 109 221 114 398 7 232 -20 382 -96
537 -90 185 -239 348 -384 421 -44 22 -89 40 -99 40 -27 0 -25 -37 6 -98 30
-59 55 -160 55 -222 0 -55 -24 -154 -49 -195 -25 -43 -77 -75 -122 -75 -59 0
-73 26 -92 172 -23 170 -49 266 -106 383 -139 288 -408 509 -678 556 -91 16
-395 6 -500 -16 l-82 -18 -38 30 c-105 82 -173 118 -315 169 -232 84 -316 96
-668 100 -204 2 -333 -2 -418 -11z m-9 -137 c112 -46 257 -147 257 -178 0 -3
-26 -17 -57 -29 -105 -42 -113 -46 -113 -53 0 -5 -13 -8 -29 -8 -45 0 -290
-86 -351 -124 -30 -19 -100 -56 -155 -83 -113 -56 -188 -102 -278 -171 -34
-27 -68 -52 -75 -56 -10 -6 -30 8 -65 42 -29 27 -83 70 -122 94 -71 46 -243
120 -306 132 -60 13 -169 49 -169 56 0 8 207 101 355 160 189 76 531 170 762
210 208 36 277 37 346 8z m1270 -132 c62 -37 62 -41 6 -59 -56 -19 -97 -21
-117 -8 -8 5 -14 34 -16 74 l-3 66 46 -25 c25 -14 63 -35 84 -48z m720 -87
c87 -12 125 -23 197 -57 36 -17 49 -27 38 -29 -22 -5 -24 -23 -3 -23 8 0 16
-10 16 -22 2 -23 2 -23 6 -1 6 32 26 34 61 7 35 -28 34 -58 -2 -50 -12 3 -9 0
7 -6 15 -7 27 -17 27 -24 0 -7 6 -15 13 -17 6 -3 -1 -6 -16 -6 -16 -1 -26 -5
-22 -11 4 -6 10 -8 15 -5 4 3 10 0 12 -7 3 -9 9 -8 22 5 19 18 31 23 21 8 -3
-5 -1 -12 5 -16 5 -3 10 -12 10 -18 0 -7 -4 -6 -10 3 -8 12 -13 13 -30 3 -11
-7 -22 -13 -25 -13 -4 0 -3 6 1 13 4 6 4 9 -1 5 -4 -4 -14 -3 -22 4 -10 8 -17
8 -26 -1 -9 -10 -8 -11 5 -6 12 5 20 1 24 -9 3 -9 12 -16 20 -16 10 0 12 -9 9
-32 -4 -26 -3 -29 4 -13 9 18 10 18 10 2 1 -10 5 -16 10 -13 13 8 21 -35 10
-55 -12 -24 -11 -31 3 -27 7 3 15 15 19 29 7 24 7 23 8 -4 1 -20 -5 -30 -23
-37 -13 -5 -26 -15 -29 -22 -4 -10 -8 -10 -17 2 -10 13 -11 13 -7 0 2 -8 11
-14 20 -14 17 2 18 -39 3 -65 -6 -9 -5 -12 2 -8 13 9 42 -2 42 -15 0 -7 -5 -6
-13 1 -8 6 -17 8 -20 4 -4 -3 -12 -1 -20 5 -16 14 -56 12 -54 -3 1 -5 11 -15
21 -21 18 -11 17 -11 -7 -11 -15 0 -27 4 -27 9 0 5 -5 6 -11 3 -6 -5 -4 -11 7
-19 15 -11 15 -14 -2 -31 -15 -15 -16 -18 -3 -13 9 3 22 2 30 -2 10 -7 7 -13
-13 -30 -24 -18 -26 -24 -16 -46 8 -17 17 -23 30 -18 10 3 18 1 18 -5 0 -6 -7
-11 -15 -11 -8 0 -12 -6 -9 -14 3 -8 -5 -21 -18 -30 -15 -11 -17 -16 -8 -16
12 -1 11 -4 -4 -15 -10 -7 -15 -18 -11 -24 3 -7 0 -8 -9 -5 -8 3 -28 29 -45
57 -70 123 -147 170 -276 168 -101 0 -160 -14 -246 -57 -37 -18 -70 -30 -74
-26 -5 4 -5 1 -1 -5 4 -8 1 -13 -8 -13 -8 0 -17 -6 -19 -12 -3 -7 -6 -4 -7 7
-1 19 -1 19 -11 1 -9 -14 -13 -15 -19 -5 -7 10 -12 10 -23 1 -7 -7 -18 -8 -22
-4 -5 4 -5 1 -1 -5 4 -8 1 -13 -8 -13 -9 0 -16 5 -16 10 0 19 -91 -46 -164
-118 -66 -65 -98 -89 -81 -62 10 17 -52 11 -69 -6 -9 -8 -16 -12 -16 -7 0 14
14 30 30 35 9 3 4 7 -13 10 -22 4 -27 2 -23 -9 3 -8 2 -12 -3 -8 -5 3 -11 2
-14 -2 -2 -5 -2 -3 -1 4 4 16 -13 26 -21 13 -3 -5 -11 -10 -18 -10 -8 0 -8 3
1 12 15 15 15 28 1 28 -5 0 -7 -5 -4 -11 9 -13 -27 -8 -37 6 -5 6 -8 3 -8 -7
0 -9 8 -19 18 -21 11 -3 8 -5 -9 -6 -19 -1 -26 4 -25 15 1 20 -21 30 -27 12
-2 -7 -2 0 1 16 3 19 1 26 -7 22 -6 -4 -11 -1 -12 6 0 10 -2 10 -6 -1 -5 -11
-7 -11 -14 0 -7 12 -9 12 -9 0 0 -11 -3 -11 -15 -1 -8 7 -22 9 -31 6 -15 -6
21 49 95 144 74 93 229 255 296 308 92 73 275 252 275 269 0 8 5 11 10 8 12
-7 12 -3 4 19 -3 9 -15 16 -26 16 -19 0 -90 -51 -135 -97 -12 -13 -24 -23 -27
-23 -3 0 -15 -10 -28 -22 -13 -13 -34 -31 -48 -41 -14 -10 -18 -15 -10 -12 8
4 -63 -69 -157 -162 -95 -92 -185 -184 -200 -204 -66 -86 -224 -269 -234 -269
-6 0 -7 5 -4 10 3 6 1 10 -4 10 -6 0 -11 8 -11 18 0 15 -2 15 -11 2 -9 -12
-12 -13 -16 -1 -5 11 -7 11 -14 0 -7 -11 -9 -10 -9 4 0 10 -4 16 -9 12 -5 -3
-13 -1 -16 5 -5 8 -11 7 -21 -1 -14 -11 -19 -2 -15 24 1 5 -3 6 -9 2 -16 -10
-80 6 -80 20 0 8 -9 17 -20 20 -11 3 -20 10 -20 15 0 5 -7 10 -15 12 -34 7
158 252 244 311 25 17 60 43 78 58 66 56 266 181 350 217 306 133 651 196 886
161z m-451 -101 c-7 -7 -12 -8 -12 -2 0 14 12 26 19 19 2 -3 -1 -11 -7 -17z
m855 -110 c-3 -8 -6 -5 -6 6 -1 11 2 17 5 13 3 -3 4 -12 1 -19z m-1588 -24
c-18 -19 -61 -55 -94 -79 -56 -40 -269 -264 -366 -384 -47 -57 -78 -71 -104
-45 -9 9 -19 14 -22 10 -3 -3 -13 0 -21 6 -11 10 -17 8 -28 -7 -8 -10 -14 -14
-14 -9 0 6 3 14 7 18 4 3 8 14 9 22 2 13 0 13 -17 -2 -17 -16 -19 -16 -19 -1
0 10 4 17 8 17 4 0 13 12 20 28 42 97 215 308 260 318 15 3 72 26 127 52 138
64 214 91 254 91 l35 1 -35 -36z m-562 0 c-3 -3 -23 -12 -44 -19 -30 -10 -37
-18 -35 -34 2 -16 -2 -21 -18 -21 -18 0 -120 -47 -120 -55 0 -2 25 -2 55 -1
42 2 61 8 80 26 25 24 36 20 12 -5 -8 -7 -83 -49 -169 -93 -85 -44 -206 -113
-269 -154 -180 -118 -169 -112 -169 -89 0 11 18 35 41 53 22 18 53 45 69 59
36 33 156 116 226 155 40 22 52 33 40 37 -9 4 -16 2 -16 -3 0 -6 -9 -10 -20
-10 -17 0 -75 -27 -105 -50 -5 -4 -19 -10 -29 -14 -16 -5 -17 -4 -6 9 7 8 16
15 21 15 5 0 49 22 97 50 104 59 388 173 359 144z m103 -18 c0 -2 -7 -7 -16
-10 -8 -3 -12 -2 -9 4 6 10 25 14 25 6z m2030 -37 c0 -7 8 -18 18 -25 9 -7 12
-14 6 -14 -6 0 -20 11 -32 25 -17 19 -18 25 -7 25 8 0 15 -5 15 -11z m10 -169
c0 -5 -4 -10 -10 -10 -5 0 -10 5 -10 10 0 6 5 10 10 10 6 0 10 -4 10 -10z m40
0 c0 -5 -8 -10 -17 -10 -15 0 -16 2 -3 10 19 12 20 12 20 0z m-4947 -25 c9 -8
23 -38 32 -66 21 -63 9 -82 -28 -45 -49 49 -96 32 -208 -71 -86 -80 -126 -107
-132 -91 -3 8 -6 6 -6 -5 -1 -10 -5 -16 -10 -12 -5 3 -12 1 -16 -5 -3 -5 -1
-10 5 -10 6 0 8 -5 5 -10 -9 -15 -25 -2 -25 21 0 58 127 237 191 270 74 37
167 49 192 24z m2627 -80 c0 -16 -6 -25 -15 -25 -9 0 -15 -9 -15 -23 0 -13 -9
-33 -20 -45 -11 -12 -20 -26 -20 -31 0 -5 -5 -13 -11 -17 -8 -4 -9 1 -5 17 l6
24 -11 -22 c-16 -30 -29 -29 -29 2 0 20 6 27 30 32 31 6 42 23 15 23 -8 0 -15
7 -15 15 0 8 7 15 15 15 8 0 15 7 15 15 0 8 10 19 22 26 18 10 20 9 15 -5 -4
-10 -3 -15 3 -11 6 3 10 13 10 21 0 8 2 14 5 14 3 0 5 -11 5 -25z m2235 -5 c3
-6 -1 -7 -9 -4 -18 7 -21 14 -7 14 6 0 13 -4 16 -10z m345 -101 c19 -69 40
-279 27 -279 -8 0 -33 127 -47 240 -6 52 -14 106 -16 120 -10 50 14 -5 36 -81z
m-357 55 c-4 -11 -7 -11 -19 1 -19 19 -18 24 5 18 12 -3 17 -11 14 -19z m904
-53 c23 -25 42 -50 42 -56 0 -5 -3 -4 -6 3 -2 6 -9 10 -14 6 -5 -3 -9 -1 -9 5
0 17 -54 65 -58 53 -2 -7 -9 -12 -15 -12 -8 0 -8 3 0 11 9 9 7 18 -5 38 -16
25 -16 26 3 12 11 -8 39 -35 62 -60z m-5693 23 c5 -14 4 -15 -9 -4 -17 14 -19
20 -6 20 5 0 12 -7 15 -16z m-197 -14 c-2 -24 -12 -26 -21 -4 -3 8 -2 12 4 9
6 -3 10 -1 10 4 0 6 2 11 4 11 3 0 4 -9 3 -20z m4988 10 c3 -5 1 -10 -4 -10
-6 0 -11 5 -11 10 0 6 2 10 4 10 3 0 8 -4 11 -10z m45 6 c0 -2 -7 -9 -15 -16
-13 -11 -14 -10 -9 4 5 14 24 23 24 12z m-40 -54 c0 -15 -2 -15 -10 -2 -13 20
-13 33 0 25 6 -3 10 -14 10 -23z m-5042 6 c-2 -7 3 -12 10 -10 6 1 12 -2 12
-7 0 -6 -9 -9 -20 -8 -20 1 -27 17 -13 30 10 10 13 8 11 -5z m5926 -4 c8 -20
1 -30 -22 -36 -12 -4 -18 1 -19 13 -2 21 13 26 20 7 2 -7 8 -10 12 -6 4 4 2
14 -5 23 -7 8 -8 15 -2 15 5 0 13 -7 16 -16z m-3667 -10 c-3 -3 -12 -4 -19 -1
-8 3 -5 6 6 6 11 1 17 -2 13 -5z m2756 -11 c-7 -2 -19 -2 -25 0 -7 3 -2 5 12
5 14 0 19 -2 13 -5z m-4490 -35 c190 -73 457 -252 538 -361 l28 -38 -139 -140
c-77 -76 -144 -139 -150 -139 -6 0 -8 -5 -5 -10 8 -13 -20 -41 -43 -44 -9 -2
-19 -11 -21 -21 -4 -22 -25 -45 -40 -45 -6 0 -11 -4 -11 -10 0 -5 -11 -12 -24
-16 -14 -3 -23 -12 -22 -22 0 -9 -5 -17 -12 -17 -16 0 -33 -26 -25 -39 3 -5 1
-6 -5 -2 -11 7 -17 -6 -13 -27 1 -5 -3 -6 -9 -2 -6 4 -18 1 -26 -6 -11 -9 -18
-9 -26 -1 -19 19 -30 14 -18 -8 9 -17 6 -20 -27 -26 -21 -4 -32 -9 -25 -11 6
-3 12 -9 12 -14 0 -6 -7 -6 -18 0 -14 7 -23 5 -35 -10 -9 -10 -14 -19 -11 -19
3 0 -8 -14 -25 -30 -39 -40 -63 -35 -143 27 -133 102 -388 367 -388 403 0 22
160 236 258 345 171 189 299 315 320 315 12 0 60 -14 105 -32z m2317 13 c0 -6
-4 -13 -10 -16 -5 -3 -10 1 -10 9 0 9 5 16 10 16 6 0 10 -4 10 -9z m3091 -38
c-12 -20 -14 -14 -5 12 4 9 9 14 11 11 3 -2 0 -13 -6 -23z m-1691 7 c0 -5 -4
-10 -10 -10 -5 0 -10 5 -10 10 0 6 5 10 10 10 6 0 10 -4 10 -10z m-1303 -6
c-3 -3 -12 -4 -19 -1 -8 3 -5 6 6 6 11 1 17 -2 13 -5z m3110 -66 c-3 -8 -6 -5
-6 6 -1 11 2 17 5 13 3 -3 4 -12 1 -19z m-2782 -18 c-3 -5 -11 -10 -16 -10 -6
0 -7 5 -4 10 3 6 11 10 16 10 6 0 7 -4 4 -10z m366 -33 c-10 -9 -11 -8 -5 6 3
10 9 15 12 12 3 -3 0 -11 -7 -18z m265 -46 c-4 -5 -2 -11 3 -13 5 -1 1 -14
-10 -27 -11 -13 -22 -21 -25 -19 -3 3 3 14 13 24 13 12 14 19 5 22 -17 5 -15
22 4 22 8 0 13 -4 10 -9z m2134 -21 c0 -5 -5 -10 -11 -10 -5 0 -7 5 -4 10 3 6
8 10 11 10 2 0 4 -4 4 -10z m4 -76 c19 -7 23 -68 4 -62 -6 2 -14 10 -16 18 -3
7 0 10 7 6 18 -12 13 16 -6 30 -19 14 -14 18 11 8z m63 -46 c-2 -13 -4 -5 -4
17 -1 22 1 32 4 23 2 -10 2 -28 0 -40z m-551 -44 c19 -3 53 -2 76 4 50 13 68
-2 40 -30 -19 -19 -112 -35 -112 -20 0 5 -9 12 -20 15 -11 3 -18 1 -14 -4 3
-5 0 -9 -6 -9 -8 0 -8 -6 0 -21 14 -25 10 -32 -8 -13 -7 8 -10 14 -5 14 4 0
-2 7 -13 15 -18 14 -18 15 0 8 19 -6 19 -6 0 25 -10 18 -22 32 -26 32 -4 0 -8
9 -8 21 0 20 1 20 30 -5 17 -14 46 -28 66 -32z m181 31 c0 -8 -4 -15 -9 -15
-10 0 -11 14 -1 23 9 10 10 9 10 -8z m-27 -9 c0 -3 -4 -8 -10 -11 -5 -3 -10
-1 -10 4 0 6 5 11 10 11 6 0 10 -2 10 -4z m230 -5 c0 -6 -4 -13 -10 -16 -5 -3
-10 1 -10 9 0 9 5 16 10 16 6 0 10 -4 10 -9z m-30 -21 c0 -5 -4 -10 -10 -10
-5 0 -10 5 -10 10 0 6 5 10 10 10 6 0 10 -4 10 -10z m-89 -23 c-7 -7 -14 -8
-21 -1 -6 6 -2 10 12 11 16 2 18 -1 9 -10z m276 -9 c-3 -8 -6 -5 -6 6 -1 11 2
17 5 13 3 -3 4 -12 1 -19z m-177 -8 c0 -21 -14 -40 -29 -40 -13 0 -13 2 -2 9
8 5 12 18 9 29 -4 15 -2 19 8 15 8 -3 14 -9 14 -13z m167 -32 c-3 -8 -6 -5 -6
6 -1 11 2 17 5 13 3 -3 4 -12 1 -19z m-527 2 c0 -5 -2 -10 -4 -10 -3 0 -8 5
-11 10 -3 6 -1 10 4 10 6 0 11 -4 11 -10z m210 0 c0 -5 -5 -10 -11 -10 -5 0
-7 5 -4 10 3 6 8 10 11 10 2 0 4 -4 4 -10z m57 -17 c-4 -3 1 -12 11 -20 15
-13 15 -13 -5 -3 -18 8 -24 7 -33 -10 -6 -11 -16 -18 -21 -14 -6 3 2 16 18 30
25 21 46 34 30 17z m-317 -14 c12 -8 9 -9 -9 -4 -21 6 -23 4 -18 -14 3 -11 1
-21 -4 -21 -10 0 -12 33 -2 43 9 9 15 9 33 -4z m137 -11 c-3 -8 -6 -5 -6 6 -1
11 2 17 5 13 3 -3 4 -12 1 -19z m313 6 c0 -14 3 -14 15 -4 8 7 15 8 15 2 0
-15 -26 -33 -35 -24 -5 4 -5 -1 -1 -12 5 -14 2 -17 -9 -12 -9 3 -13 2 -10 -4
7 -11 -18 -40 -34 -40 -6 0 -11 -5 -11 -10 0 -6 -10 -15 -22 -20 -13 -5 -36
-18 -53 -29 -16 -12 -40 -21 -51 -21 -12 0 -25 -7 -28 -16 -9 -23 -18 -11 -23
30 -2 20 2 38 8 42 8 4 9 3 5 -4 -5 -8 0 -12 13 -12 12 0 21 6 21 14 0 17 37
28 44 12 2 -6 5 -3 5 7 1 9 6 17 11 17 6 0 10 9 10 20 0 11 5 20 12 20 6 0 19
7 29 15 15 14 18 14 35 -2 17 -17 17 -17 11 0 -3 9 -4 24 -1 32 8 20 44 19 44
-1z m-4770 -55 c0 -5 -4 -9 -10 -9 -5 0 -10 7 -10 15 0 8 -4 15 -10 15 -5 0
-10 8 -10 18 1 14 4 13 20 -7 11 -13 20 -27 20 -32z m4876 -11 c-8 -29 -22
-62 -31 -73 l-17 -20 8 20 c4 11 16 46 28 77 25 70 33 68 12 -4z m-301 32 c3
-5 1 -10 -4 -10 -6 0 -11 5 -11 10 0 6 2 10 4 10 3 0 8 -4 11 -10z m454 -142
c1 -109 -22 -209 -74 -315 -54 -110 -128 -194 -230 -263 -153 -103 -267 -144
-400 -143 -96 0 -125 2 -125 8 0 19 17 35 36 35 13 0 24 4 24 9 0 4 21 11 47
15 53 7 115 27 124 39 3 4 10 7 15 5 16 -5 167 88 225 139 99 88 191 195 242
284 35 60 84 201 93 270 7 49 9 51 15 24 4 -16 7 -65 8 -107z m-424 102 c3 -6
-1 -7 -9 -4 -18 7 -21 14 -7 14 6 0 13 -4 16 -10z m-150 -88 c-8 -8 -25 17
-25 38 0 9 6 6 16 -8 9 -13 13 -26 9 -30z m35 23 c0 -3 -9 -23 -20 -45 -15
-30 -24 -38 -37 -33 -11 4 -13 8 -5 11 7 2 12 10 12 18 0 9 4 13 9 9 12 -7 33
29 24 39 -3 3 -1 6 5 6 7 0 12 -2 12 -5z m4 -62 c-10 -7 -20 -10 -23 -7 -3 3
2 12 12 19 10 7 17 17 16 21 -1 5 0 14 1 19 2 6 5 -1 7 -14 3 -16 -1 -29 -13
-38z m-3004 22 c219 -34 406 -94 570 -182 92 -50 118 -53 190 -28 25 9 99 30
165 46 66 17 172 46 235 65 63 18 167 43 230 54 137 25 370 37 420 22 l35 -10
-30 -1 -30 -1 35 -30 c19 -16 40 -30 47 -30 6 0 24 -18 40 -40 26 -38 31 -41
71 -38 l43 3 40 -80 c32 -67 56 -98 145 -185 164 -162 216 -262 254 -485 26
-151 31 -403 16 -815 -6 -176 -5 -262 3 -305 17 -90 30 -238 24 -282 l-5 -39
-52 4 c-62 4 -102 -17 -76 -41 8 -7 40 -21 70 -30 57 -17 152 -74 233 -141 60
-49 182 -200 235 -291 108 -183 143 -399 103 -634 -28 -168 -40 -178 -56 -46
-5 44 -46 210 -61 250 -4 9 0 15 9 15 9 0 20 15 27 35 15 46 16 183 1 198 -6
6 -11 19 -11 29 0 27 -44 23 -64 -6 -8 -14 -17 -31 -18 -38 -2 -7 -12 -16 -23
-19 -13 -4 -19 -13 -18 -28 2 -16 -16 -3 -75 57 -69 71 -112 97 -112 69 0 -5
24 -40 53 -76 58 -71 137 -207 137 -234 0 -10 -6 -17 -12 -17 -9 0 -8 -4 2
-11 12 -8 9 -10 -13 -6 -23 4 -25 2 -15 -10 10 -12 9 -18 -5 -28 -12 -9 -15
-15 -7 -20 8 -5 8 -11 1 -19 -6 -7 -7 -17 -3 -21 4 -5 -2 -5 -12 -1 -15 5 -17
4 -8 -7 9 -11 6 -17 -13 -27 -19 -10 -22 -16 -13 -27 9 -11 7 -12 -8 -7 -15 5
-16 4 -7 -6 8 -9 6 -20 -9 -46 -21 -36 -36 -48 -18 -15 12 24 13 31 1 31 -5 0
-12 -16 -16 -36 -5 -31 -8 -34 -18 -19 -11 14 -13 13 -15 -10 -1 -17 2 -24 10
-19 7 4 8 3 4 -5 -4 -6 -11 -9 -16 -6 -5 3 -11 1 -15 -5 -3 -5 0 -10 7 -10 10
0 10 -2 0 -9 -8 -4 -14 -12 -14 -17 -1 -21 -11 -34 -27 -34 -12 0 -23 17 -36
53 -31 88 -73 165 -95 172 -11 3 -20 11 -20 17 0 6 7 5 18 -3 15 -13 16 -12 3
4 -7 9 -19 17 -26 17 -7 0 -16 7 -19 16 -4 9 -13 14 -21 10 -10 -3 -15 1 -15
13 0 22 -25 45 -39 36 -7 -4 -4 -16 8 -33 137 -202 189 -389 178 -645 -9 -210
-28 -256 -161 -389 -114 -114 -338 -261 -445 -293 -27 -8 -27 -9 31 73 20 30
45 77 54 104 9 28 19 46 23 42 14 -20 62 -3 105 38 27 27 40 32 60 29 5 -1 6
5 2 14 -3 9 -2 13 4 10 6 -3 10 -1 10 5 0 6 5 8 12 4 8 -5 9 -2 5 9 -4 10 -2
16 6 14 7 -1 11 4 10 11 -2 6 4 12 12 12 8 0 15 5 15 11 0 6 7 8 16 5 8 -3 13
-2 10 2 -6 10 29 42 45 42 5 0 7 4 4 10 -3 6 1 10 10 10 9 0 14 4 11 9 -3 4 6
18 19 31 13 13 22 27 19 32 -3 4 2 11 10 14 9 3 16 12 16 19 0 7 7 16 16 19 8
3 13 10 9 15 -3 6 1 13 8 18 28 17 48 140 28 171 -6 11 -12 10 -26 -5 -14 -14
-19 -15 -23 -4 -4 11 -6 11 -13 0 -7 -11 -9 -10 -9 4 0 23 -17 22 -25 -3 -3
-11 -13 -20 -21 -20 -11 0 -13 -6 -9 -20 5 -15 2 -18 -14 -15 -11 2 -22 -3
-25 -12 -5 -12 -9 -13 -21 -3 -9 7 -18 10 -22 6 -3 -3 -1 -6 5 -6 14 0 -18
-35 -39 -43 -10 -4 -9 -6 4 -6 9 -1 17 -6 17 -12 0 -5 -5 -7 -11 -4 -6 4 -22
-4 -36 -16 l-26 -24 17 27 18 27 -24 -11 c-19 -9 -23 -18 -20 -36 3 -16 1 -23
-6 -18 -6 3 -18 -1 -27 -11 -13 -13 -18 -14 -25 -3 -4 7 -13 9 -19 6 -6 -4 -9
-11 -7 -15 3 -3 -4 -7 -14 -7 -10 0 -16 4 -14 8 3 4 1 8 -5 8 -5 0 -11 -6 -14
-12 -2 -7 -7 16 -11 51 -10 91 -50 239 -81 305 -25 53 -28 56 -41 39 -11 -14
-13 -14 -9 -2 6 17 -21 46 -32 35 -4 -3 10 -57 30 -119 20 -61 41 -148 47
-192 14 -98 10 -191 -7 -188 -9 2 -10 -4 -2 -23 5 -15 7 -29 4 -32 -3 -3 -5 1
-5 8 0 8 -8 3 -20 -10 -11 -13 -20 -17 -20 -10 0 9 -6 8 -20 -5 -11 -10 -17
-22 -13 -28 3 -6 1 -7 -5 -3 -7 4 -12 14 -12 23 0 12 -3 13 -14 4 -11 -9 -15
-9 -20 1 -3 7 -4 1 -3 -14 4 -23 2 -26 -14 -18 -19 11 -21 -2 -5 -30 7 -12 6
-13 -5 -2 -7 6 -20 12 -28 12 -14 0 -14 -1 -1 -10 13 -9 13 -10 -1 -10 -8 0
-25 -9 -37 -20 -12 -11 -27 -20 -35 -20 -7 0 -22 -7 -33 -16 -10 -8 -13 -12
-5 -8 9 5 12 3 7 -5 -4 -6 -12 -9 -17 -6 -5 4 -14 3 -20 -1 -8 -5 -8 -9 1 -14
9 -5 9 -9 1 -14 -6 -4 -11 -2 -11 3 0 6 -7 11 -16 11 -10 0 -14 -6 -11 -14 4
-10 0 -12 -14 -9 -11 3 -19 0 -19 -7 0 -7 -6 -10 -14 -7 -8 3 -17 -1 -20 -9
-4 -10 -2 -13 7 -8 9 5 9 4 1 -5 -6 -6 -25 -16 -43 -21 l-33 -9 6 37 c13 91
15 154 8 252 -6 98 -8 105 -27 102 -11 -2 -23 -8 -26 -14 -3 -5 -6 5 -7 22 0
21 3 28 11 23 7 -3 3 3 -7 15 -11 12 -21 21 -22 19 -2 -2 1 -52 6 -112 9 -122
0 -244 -26 -347 -14 -54 -20 -65 -31 -56 -10 8 -13 5 -14 -13 0 -13 -3 -18 -6
-12 -3 8 -14 11 -30 7 -18 -5 -24 -3 -19 5 4 6 1 11 -9 11 -12 0 -14 -4 -5
-19 14 -27 13 -28 -15 -33 -14 -3 -25 -1 -25 6 0 6 -5 4 -10 -4 -6 -10 -10
-11 -10 -2 0 6 -5 12 -11 12 -6 0 -8 -9 -4 -22 6 -16 4 -20 -8 -15 -9 3 -17 1
-19 -5 -2 -6 -18 -12 -36 -13 -17 -1 -35 -5 -39 -10 -5 -4 -2 -5 5 -1 6 4 12
2 12 -3 0 -17 -11 -13 -39 12 -14 12 -19 14 -12 5 12 -16 11 -18 -8 -18 -13 0
-21 -7 -22 -17 -1 -10 -6 -3 -12 15 -8 27 -7 36 4 43 9 6 10 9 2 9 -12 0 -25
33 -28 70 -3 31 -18 60 -31 60 -7 0 -13 -8 -13 -17 0 -23 -28 -133 -35 -141
-3 -3 -6 0 -6 6 0 7 -5 12 -11 12 -5 0 -7 -5 -4 -10 4 -6 1 -17 -5 -25 -10
-13 -14 -12 -27 0 -8 8 -12 19 -8 25 8 14 -26 1 -49 -19 -18 -15 -19 -15 -13
1 4 13 2 15 -11 11 -9 -4 -20 -11 -23 -16 -4 -5 -16 -3 -29 5 -17 10 -24 10
-27 1 -2 -7 -11 -9 -20 -6 -12 5 -14 3 -8 -7 5 -9 4 -11 -4 -6 -6 4 -9 11 -6
16 3 5 -3 18 -15 30 -12 12 -20 15 -20 7 0 -7 -13 -17 -28 -23 -23 -9 -29 -8
-29 3 0 8 6 12 13 9 8 -3 16 0 20 6 5 7 -2 9 -22 4 -16 -3 -39 -8 -51 -11 -12
-3 -25 0 -29 7 -5 8 -2 9 9 5 9 -3 19 -2 22 3 7 12 -23 12 -50 0 -13 -6 -15
-9 -5 -9 13 -1 13 -2 0 -11 -9 -6 -17 -5 -21 1 -3 6 -10 11 -15 12 -5 1 -8 8
-6 15 5 21 -7 13 -23 -15 -9 -16 -14 -21 -12 -12 3 9 1 22 -4 30 -7 11 -9 11
-9 -4 0 -16 -2 -16 -22 -3 -26 17 -64 14 -60 -4 1 -6 -2 -9 -7 -5 -6 3 -8 11
-6 18 7 16 -42 39 -49 23 -3 -7 -8 -6 -15 4 -10 13 -11 13 -12 0 0 -8 -5 -1
-10 17 -6 21 -14 30 -23 27 -19 -7 -27 36 -40 241 l-11 180 -22 -24 c-12 -13
-26 -20 -31 -17 -15 9 -25 -141 -17 -252 6 -82 4 -100 -9 -111 -16 -14 -40 -6
-31 10 6 9 -7 13 -39 9 -10 -1 -15 3 -12 8 3 5 -3 12 -13 15 -12 3 -22 -1 -25
-10 -8 -21 -28 -5 -21 17 5 15 2 18 -15 15 -11 -2 -24 -6 -29 -10 -5 -3 -12
-1 -16 5 -4 6 -10 8 -15 5 -5 -3 -7 4 -5 15 3 18 1 19 -17 9 -21 -11 -37 1
-38 28 0 6 -5 15 -12 19 -7 5 -9 2 -5 -8 9 -26 -6 -30 -20 -6 -10 19 -12 20
-13 5 0 -17 -1 -16 -21 2 -12 11 -18 24 -15 30 4 7 1 8 -8 5 -9 -3 -23 2 -32
11 -9 9 -25 14 -35 12 -13 -4 -19 0 -19 13 0 10 -9 20 -21 23 -12 3 -18 10
-14 16 3 6 2 11 -4 11 -5 0 -12 -6 -15 -12 -5 -10 -7 -10 -12 0 -3 6 -11 12
-18 12 -12 0 -28 25 -40 63 -9 28 12 201 35 292 11 44 21 87 21 95 0 21 -13
104 -17 108 -12 12 -97 -239 -126 -370 -7 -32 -16 -58 -21 -58 -4 0 -8 6 -8
13 0 8 -3 7 -9 -3 -6 -8 -7 -18 -4 -24 3 -5 1 -6 -6 -2 -6 4 -8 12 -5 18 4 6
-2 6 -15 -1 -17 -10 -20 -9 -14 5 5 14 3 15 -15 5 -17 -9 -23 -8 -31 6 -8 14
-11 15 -11 3 -1 -8 -7 -1 -15 15 -8 18 -14 23 -14 13 -1 -9 -5 -20 -11 -23 -6
-4 -7 1 -3 11 4 12 3 15 -6 10 -6 -4 -10 -3 -9 4 2 7 -7 16 -18 20 -19 7 -21
6 -17 -13 4 -19 2 -17 -15 6 -13 20 -21 25 -24 15 -4 -8 -18 1 -44 30 -22 23
-48 42 -59 42 -20 1 -20 1 0 17 16 13 17 15 3 10 -17 -6 -23 3 -19 26 1 5 -3
6 -9 2 -6 -3 -7 -11 -4 -17 4 -6 -2 -6 -15 1 -11 7 -21 16 -21 21 0 6 -7 10
-16 10 -10 0 -14 6 -11 15 5 11 1 12 -18 5 -19 -7 -23 -6 -18 5 3 8 0 15 -7
15 -7 0 -10 7 -6 18 5 15 5 15 -8 -1 -14 -18 -14 -18 -20 1 -4 11 -13 23 -22
26 -12 4 -12 2 -4 -14 9 -16 8 -18 -5 -14 -8 4 -15 14 -15 23 0 14 -2 14 -10
1 -6 -10 -8 -2 -4 25 11 80 35 158 73 243 21 48 43 102 49 120 10 32 10 33
-16 30 -18 -2 -32 -13 -42 -33 -8 -16 -30 -56 -48 -88 -18 -31 -46 -90 -62
-130 -25 -63 -29 -68 -29 -39 -1 18 -5 31 -10 28 -13 -8 -42 4 -35 15 3 5 -2
12 -10 15 -8 3 -18 15 -22 26 -3 11 -15 29 -26 40 -17 17 -22 18 -30 7 -6 -10
-7 -7 -3 10 5 15 3 21 -3 17 -6 -3 -13 -2 -17 4 -4 6 -10 8 -15 5 -4 -3 -11 2
-14 11 -4 10 -2 13 6 8 7 -4 8 -3 4 4 -4 7 -18 12 -32 12 -14 0 -24 6 -24 14
0 8 -7 17 -16 20 -10 4 -13 13 -9 26 3 11 2 20 -3 20 -5 0 -14 11 -20 24 -11
25 -32 54 -64 88 -10 10 -15 18 -10 18 4 0 1 4 -6 9 -10 6 -5 22 21 72 32 60
147 222 168 234 5 4 9 14 9 23 0 13 -3 12 -16 -6 -8 -12 -20 -22 -25 -22 -5 0
-4 7 3 15 7 9 18 21 23 28 6 7 24 28 40 47 l30 33 -32 -22 c-62 -42 -138 -119
-198 -199 -33 -45 -68 -83 -77 -85 -11 -3 -15 0 -11 9 3 9 -2 14 -16 14 -12 0
-21 6 -22 13 0 6 -2 19 -4 27 -2 8 -5 25 -7 37 -2 12 -13 32 -24 44 -10 12
-14 20 -9 17 6 -3 11 5 11 18 2 20 0 21 -13 9 -19 -19 -29 -19 -13 0 7 9 9 22
4 32 -4 10 -8 28 -9 40 0 12 -4 25 -8 29 -42 42 109 232 296 373 91 68 115 79
292 136 171 56 185 63 159 82 -24 18 -79 16 -144 -3 l-54 -16 -22 28 c-35 43
-71 168 -85 289 -8 70 -12 280 -13 572 l-1 463 78 77 c43 43 87 92 97 108 23
35 27 77 6 69 -10 -4 -20 13 -35 57 -27 82 -28 155 -1 184 22 24 38 92 41 184
3 69 19 104 40 84 11 -11 9 -13 -6 -13 -10 0 -16 -3 -13 -6 20 -20 148 58 148
90 1 21 314 147 440 178 165 39 435 45 640 13z m2928 -5 c-7 -11 -15 -15 -17
-9 -2 6 3 15 10 20 20 12 21 11 7 -11z m375 -47 c-22 -34 -23 -36 -69 -93 -37
-46 -64 -68 -64 -52 0 5 7 15 15 22 8 7 41 48 72 91 32 44 59 75 61 70 2 -5
-5 -22 -15 -38z m-383 7 c0 -5 -7 -7 -15 -4 -8 4 -15 8 -15 10 0 2 7 4 15 4 8
0 15 -4 15 -10z m-4750 -224 c0 -3 -4 -8 -10 -11 -5 -3 -10 -1 -10 4 0 6 5 11
10 11 6 0 10 -2 10 -4z m-30 -56 c0 -5 -2 -10 -4 -10 -3 0 -8 5 -11 10 -3 6
-1 10 4 10 6 0 11 -4 11 -10z m-30 -35 c0 -8 -4 -17 -10 -20 -6 -4 -10 5 -10
20 0 15 4 24 10 20 6 -3 10 -12 10 -20z m5210 -335 c-41 -52 -200 -156 -270
-177 -83 -24 -240 -7 -240 26 0 5 53 19 118 31 128 24 222 58 322 120 36 21
73 39 83 40 16 0 14 -6 -13 -40z m-6533 -88 c2 -23 -1 -32 -13 -32 -8 0 -12
-4 -9 -10 3 -6 -1 -7 -9 -4 -11 4 -16 0 -17 -12 -1 -16 -2 -17 -6 -2 -2 9 4
32 13 50 10 18 17 37 16 41 -2 5 3 7 10 5 7 -3 14 -19 15 -36z m1697 -488 l-7
-179 -65 -40 c-36 -22 -102 -64 -146 -93 -78 -51 -130 -82 -140 -82 -2 0 -24
18 -48 41 -27 26 -38 42 -30 46 6 2 12 15 12 28 0 13 6 26 13 28 9 4 9 8 1 14
-18 12 -20 55 -3 85 12 22 79 87 127 123 8 6 26 22 40 37 15 15 43 38 62 51
19 13 68 47 109 75 41 29 76 50 78 48 2 -2 1 -84 -3 -182z m4262 74 c-10 -112
-50 -316 -97 -493 -32 -122 -44 -186 -49 -270 l-6 -110 -19 40 c-20 43 -27
134 -15 215 l7 45 2 -40 c3 -67 18 -20 31 98 7 59 9 120 5 134 -3 15 -3 59 0
99 6 64 9 71 26 67 12 -3 19 0 20 8 0 8 2 25 4 39 2 14 5 71 6 127 3 110 2
109 63 112 l29 1 -7 -72z m-4333 -643 c-75 -70 -79 -72 -95 -54 -10 10 -18 23
-18 29 0 5 -8 10 -17 10 -9 0 -14 3 -10 6 3 4 -3 24 -13 45 -11 21 -20 44 -20
51 0 7 -7 21 -14 31 -12 16 -15 16 -29 2 -10 -10 -18 -11 -22 -5 -6 10 51 37
67 32 5 -1 7 2 5 7 -2 8 172 143 219 169 18 10 19 6 22 -120 l3 -130 -78 -73z
m-603 289 c107 -35 182 -92 271 -203 70 -86 139 -225 139 -281 0 -15 -18 -66
-41 -114 -22 -47 -44 -110 -49 -139 -15 -94 -21 -109 -36 -96 -8 6 -14 15 -14
19 0 5 -16 42 -35 83 -19 41 -35 80 -35 87 0 45 -156 206 -258 267 -159 94
-362 98 -442 7 -76 -87 -106 -197 -97 -357 11 -214 125 -435 292 -570 120 -96
214 -121 360 -94 49 9 91 14 94 12 2 -3 -3 -52 -12 -109 -9 -57 -17 -129 -17
-159 0 -31 -3 -58 -7 -60 -15 -8 -252 52 -321 81 -154 65 -359 229 -459 369
-128 179 -187 357 -186 563 0 195 45 340 147 477 96 127 214 206 357 238 99
23 244 14 349 -21z m5405 11 c90 -23 178 -72 251 -138 74 -68 102 -107 167
-227 89 -166 106 -389 46 -608 -45 -169 -175 -377 -304 -489 -60 -51 -255
-174 -266 -167 -4 2 -10 32 -14 66 -4 34 -16 86 -26 117 -11 30 -19 55 -19 57
0 2 28 18 63 36 189 100 356 403 357 648 0 266 -116 414 -310 394 -36 -3 -80
-12 -97 -20 -18 -7 -33 -10 -33 -7 0 3 -6 0 -13 -6 -8 -6 -17 -8 -20 -4 -4 3
-7 0 -7 -7 0 -16 -29 -50 -42 -50 -5 0 -6 5 -2 12 4 7 3 8 -4 4 -7 -4 -12 -14
-12 -22 0 -8 -7 -14 -16 -14 -8 0 -12 -4 -9 -10 6 -9 -8 -14 -27 -11 -8 1 -12
-15 -9 -32 1 -5 -3 -6 -8 -3 -5 4 -12 0 -15 -6 -3 -7 -3 0 -1 16 2 16 1 25 -3
21 -7 -7 -8 -12 -11 -39 0 -7 -15 -16 -31 -18 -25 -4 -30 -2 -25 11 11 28 10
36 -4 33 -8 -2 -18 3 -22 10 -6 10 -12 8 -23 -7 -9 -11 -16 -15 -16 -9 0 15
25 36 38 32 5 -2 12 2 13 7 2 6 -6 11 -18 13 -12 2 -24 9 -26 16 -7 19 21 244
33 267 24 43 134 104 240 133 72 19 152 20 225 1z m-6558 -67 c-3 -7 -5 -2 -5
12 0 14 2 19 5 13 2 -7 2 -19 0 -25z m45 -7 c-4 -10 -1 -13 11 -8 11 4 18 -1
22 -14 4 -10 15 -19 25 -19 13 0 17 -5 13 -18 -2 -10 3 -24 11 -31 13 -11 16
-11 16 -1 0 8 8 4 19 -8 10 -12 26 -22 35 -22 9 0 21 -11 26 -24 7 -20 14 -23
43 -19 46 6 53 -21 21 -87 -13 -27 -24 -56 -24 -64 0 -8 -9 -24 -19 -37 l-20
-24 -36 35 c-47 45 -124 161 -142 212 -7 22 -22 56 -32 76 -13 26 -16 41 -9
52 13 20 48 21 40 1z m5875 -133 c-3 -7 -5 -2 -5 12 0 14 2 19 5 13 2 -7 2
-19 0 -25z m-4073 -255 l6 -111 -111 -93 c-61 -51 -129 -115 -150 -142 -22
-27 -39 -45 -39 -40 2 38 40 187 50 193 6 4 11 10 11 14 -4 23 100 199 169
286 42 52 44 53 50 30 4 -14 10 -75 14 -137z m-198 52 c-3 -20 -16 -31 -16
-13 0 13 8 28 16 28 1 0 1 -7 0 -15z m4437 -120 l22 -8 -22 -4 c-14 -3 -20 -9
-16 -19 3 -8 0 -14 -6 -14 -6 0 -11 17 -10 43 1 23 3 35 6 26 2 -10 14 -20 26
-24z m4 -80 c-1 -19 -5 -35 -9 -35 -4 0 -5 -7 -2 -15 3 -8 2 -20 -2 -27 -6 -9
-10 -4 -14 17 -3 17 -1 33 5 37 6 5 6 8 -2 8 -7 0 -13 10 -13 23 0 18 2 19 10
7 8 -13 10 -12 10 3 0 9 4 17 9 17 5 0 9 -16 8 -35z m-4207 -96 c9 -35 27 -88
39 -118 24 -59 19 -75 -29 -93 -39 -15 -211 -124 -247 -156 -17 -16 -38 -32
-47 -35 -9 -4 -16 -10 -16 -15 0 -8 -89 -77 -100 -77 -3 0 -11 -4 -17 -8 -55
-35 222 403 326 515 30 32 59 57 64 55 6 -2 18 -32 27 -68z m4157 -129 c120
-203 155 -269 151 -281 -2 -6 -23 12 -46 40 -35 41 -172 161 -218 189 -6 5 -9
48 -6 122 5 135 -5 141 119 -70z m148 110 c-3 -6 4 -15 17 -20 l23 -10 -25 3
c-24 2 -43 37 -20 37 6 0 8 -5 5 -10z m-5377 -68 c-11 -14 -9 -14 15 1 15 10
27 13 27 7 0 -14 27 -12 33 3 3 7 6 5 6 -5 1 -10 8 -18 17 -18 10 0 14 6 11
14 -4 10 0 14 14 13 24 -2 24 -6 2 -23 -15 -10 -16 -15 -5 -25 10 -11 12 -9
12 5 0 12 5 16 16 12 8 -3 12 -2 9 4 -8 13 15 13 35 0 8 -5 11 -12 7 -17 -5
-4 -12 -1 -17 7 -8 12 -10 10 -10 -8 0 -20 3 -21 21 -12 15 8 24 8 33 1 8 -6
21 -9 30 -5 12 5 16 0 16 -17 0 -19 -2 -21 -10 -9 -8 13 -10 13 -10 -1 0 -19
34 -52 43 -43 4 4 2 -7 -2 -24 -5 -17 -8 -53 -7 -79 7 -115 66 -212 157 -259
56 -28 61 -41 22 -50 -16 -3 -51 -12 -80 -20 -78 -21 -118 -17 -191 19 -155
75 -316 295 -339 461 -9 70 -8 74 25 69 68 -10 102 -6 102 12 0 9 6 12 15 9
13 -5 13 -9 3 -22z m5806 -17 c-4 -8 -1 -15 5 -15 6 0 11 7 11 16 0 14 3 14
15 4 11 -9 15 -9 15 -1 0 7 5 9 10 6 6 -3 10 -15 10 -25 0 -13 5 -17 14 -14
12 5 11 -5 -3 -53 -27 -86 -56 -146 -104 -221 -55 -84 -97 -129 -169 -181
l-57 -41 -16 57 c-9 32 -29 100 -46 152 -28 90 -29 95 -12 114 13 14 18 36 18
80 0 63 15 87 42 65 7 -5 14 -5 18 2 9 14 28 13 19 -2 -5 -10 -4 -10 6 -1 11
10 11 15 0 28 -15 18 0 20 19 3 12 -11 13 -10 7 6 -5 16 -4 17 9 6 8 -7 16
-22 16 -34 1 -15 3 -12 8 9 5 24 11 30 31 28 35 -4 85 -11 85 -13 0 -1 10 -3
23 -4 16 -2 21 1 17 12 -3 7 -3 18 1 23 9 14 14 10 8 -6z m-5510 -60 c-4 -9 0
-15 7 -15 11 0 11 -2 -1 -10 -21 -13 -36 5 -20 25 16 19 21 19 14 0z m256
-285 c0 -5 -4 -10 -10 -10 -5 0 -10 5 -10 10 0 6 5 10 10 10 6 0 10 -4 10 -10z
m120 -264 c0 -3 -4 -8 -10 -11 -5 -3 -10 -1 -10 4 0 6 5 11 10 11 6 0 10 -2
10 -4z m0 -30 c0 -3 -4 -8 -10 -11 -5 -3 -10 -1 -10 4 0 6 5 11 10 11 6 0 10
-2 10 -4z m50 -130 c0 -2 -8 -10 -17 -17 -16 -13 -17 -12 -4 4 13 16 21 21 21
13z m-101 -249 c14 -6 29 -16 33 -21 4 -6 12 2 19 17 6 14 17 24 22 20 6 -3
21 7 34 23 28 34 27 33 -27 -96 -19 -46 -36 -110 -43 -165 -7 -49 -16 -85 -20
-78 -12 20 -46 136 -63 217 -11 52 -13 94 -8 125 l7 46 10 -38 c6 -27 17 -42
36 -50z m4794 -262 c1 -158 -15 -214 -101 -344 -55 -82 -215 -261 -225 -251
-3 3 -1 30 5 60 5 30 13 114 17 185 6 97 9 122 15 98 7 -28 13 -33 37 -33 15
0 31 5 34 10 4 6 11 8 16 5 5 -4 9 1 9 9 0 8 6 21 13 28 7 7 19 29 26 48 24
61 63 140 70 140 11 0 43 120 49 184 l5 61 15 -35 c10 -24 15 -76 15 -165z
m-4634 16 c11 -50 44 -110 97 -175 54 -66 132 -145 138 -139 3 4 6 -1 6 -10 0
-8 9 -19 20 -22 11 -3 20 -11 20 -16 0 -5 7 -9 16 -9 11 0 13 -6 9 -19 -5 -16
-1 -19 15 -18 11 1 20 5 20 9 0 5 10 2 23 -6 20 -13 24 -30 35 -122 7 -59 11
-108 9 -111 -9 -8 -153 115 -221 188 -143 154 -216 279 -216 369 0 52 9 130
15 130 2 0 8 -22 14 -49z m4135 -357 c3 -8 2 -12 -4 -9 -6 3 -10 10 -10 16 0
14 7 11 14 -7z m76 6 c0 -5 -2 -10 -4 -10 -3 0 -8 5 -11 10 -3 6 -1 10 4 10 6
0 11 -4 11 -10z m-3630 -258 c23 -23 46 -39 51 -36 5 3 14 -7 21 -21 8 -18 17
-25 30 -22 12 3 18 0 18 -10 0 -10 6 -14 20 -10 13 3 20 0 20 -10 0 -9 5 -11
13 -7 8 5 8 2 -2 -9 -8 -10 -9 -17 -3 -17 6 0 14 5 17 10 11 18 27 11 20 -9
-7 -22 17 -35 34 -18 9 9 11 8 6 -5 -5 -13 -2 -18 10 -18 9 0 19 -9 22 -20 3
-11 9 -17 14 -14 5 3 9 0 9 -5 0 -6 7 -11 16 -11 8 0 13 -4 10 -8 -3 -5 24
-24 59 -41 36 -18 65 -37 65 -43 0 -6 16 -8 43 -4 42 7 43 6 59 -31 33 -76 58
-135 58 -138 0 -8 -111 35 -186 72 -197 99 -417 265 -475 360 -26 42 -49 126
-48 178 l0 40 29 -55 c15 -31 47 -75 70 -98z m-592 82 c17 -5 15 -34 -5 -57
-17 -19 -17 -20 5 -8 18 10 22 9 22 -4 0 -8 10 -19 23 -24 12 -5 37 -23 56
-40 19 -17 45 -38 57 -48 27 -20 31 -41 9 -49 -8 -4 -15 -12 -15 -19 0 -8 -5
-17 -12 -21 -8 -5 -9 0 -5 15 4 18 3 20 -9 10 -8 -6 -14 -8 -14 -3 0 5 -5 2
-10 -6 -5 -8 -9 -26 -9 -40 l1 -25 7 25 7 25 6 -29 c4 -19 1 -35 -8 -43 -12
-12 -14 -12 -14 2 0 9 -4 14 -9 11 -5 -3 -57 21 -116 54 -110 61 -189 93 -260
104 -51 9 -73 22 -60 35 15 14 236 133 265 141 23 7 53 5 88 -6z m1852 -84 c0
-5 -2 -10 -4 -10 -3 0 -8 5 -11 10 -3 6 -1 10 4 10 6 0 11 -4 11 -10z m1837
-127 c-3 -10 -5 -2 -5 17 0 19 2 27 5 18 2 -10 2 -26 0 -35z m-3931 -3 c60
-21 302 -163 389 -229 33 -25 95 -81 139 -125 67 -68 76 -81 60 -87 -11 -3
-25 -4 -31 0 -27 14 -93 83 -93 97 0 8 -5 14 -11 14 -6 0 -17 6 -25 14 -11 11
-11 16 -1 20 6 3 3 5 -8 4 -32 -2 -83 20 -160 68 -151 94 -320 158 -473 179
-61 8 -59 18 12 51 58 27 111 25 202 -6z m3821 -12 c-3 -7 -5 -2 -5 12 0 14 2
19 5 13 2 -7 2 -19 0 -25z m94 -85 c-14 -75 -69 -187 -122 -247 -23 -26 -85
-78 -139 -116 -136 -96 -429 -236 -438 -209 -2 5 11 26 30 47 53 59 96 126
126 195 30 70 51 79 45 18 -2 -22 1 -42 7 -46 5 -3 10 0 10 7 0 8 5 6 11 -4 5
-10 15 -18 22 -18 8 0 8 3 -2 9 -17 11 3 25 24 18 7 -3 16 1 19 8 3 8 12 12
21 9 8 -4 17 0 21 9 3 9 11 14 19 11 7 -3 19 2 28 10 8 8 18 12 21 8 4 -3 10
-2 14 3 4 6 25 22 47 36 96 62 205 198 226 280 17 66 23 48 10 -28z m1318 26
c56 -23 91 -75 91 -133 0 -43 -9 -45 -37 -8 -40 55 -134 78 -209 52 -16 -5
-58 -16 -92 -24 l-64 -15 39 39 c42 42 165 109 201 110 13 0 45 -9 71 -21z
m-3573 -262 c7 2 17 -5 24 -16 6 -11 14 -20 18 -20 16 2 52 -14 52 -24 0 -6 3
-8 6 -4 4 3 13 -1 21 -9 8 -8 19 -12 24 -9 5 4 9 1 9 -4 0 -6 7 -11 16 -11 8
0 13 -3 11 -7 -3 -5 9 -9 25 -10 17 -1 36 -8 44 -14 8 -6 14 -8 14 -5 0 4 10
1 23 -5 12 -7 35 -14 51 -16 16 -2 32 -5 34 -8 3 -2 19 2 37 9 l33 14 18 -40
c10 -21 35 -62 56 -90 63 -85 54 -91 -87 -48 -245 75 -488 219 -561 332 -24
38 -64 134 -64 155 0 6 41 -30 92 -82 50 -51 97 -91 104 -88z m504 69 c0 -3
-4 -8 -10 -11 -5 -3 -10 -1 -10 4 0 6 5 11 10 11 6 0 10 -2 10 -4z m3127 -62
c15 -19 59 -74 96 -121 49 -61 89 -129 142 -237 88 -184 171 -379 180 -426 3
-19 17 -69 30 -110 28 -88 49 -190 44 -215 -3 -12 -18 3 -50 51 -49 73 -56 88
-115 279 -31 103 -77 221 -142 365 -20 44 -48 81 -55 74 -3 -4 -5 2 -5 12 1
11 -37 97 -84 192 -85 169 -96 207 -41 136z m-5340 -19 c21 -9 45 -23 55 -32
10 -9 18 -13 18 -9 0 6 11 -1 44 -31 8 -7 16 -9 20 -6 3 3 12 1 19 -5 7 -7 44
-23 82 -37 81 -31 185 -81 202 -98 9 -9 8 -26 -5 -73 -13 -51 -14 -75 -5 -135
5 -41 8 -77 6 -81 -2 -5 -28 -8 -58 -8 -83 0 -404 -125 -464 -181 -11 -11 -23
-19 -27 -19 -4 0 -49 -31 -98 -68 -50 -38 -102 -75 -116 -84 -14 -9 -43 -33
-65 -53 -33 -30 -41 -33 -43 -19 -2 9 7 26 20 38 30 27 37 66 11 66 -15 0 -16
-2 -3 -10 8 -5 11 -10 5 -10 -5 0 -16 4 -24 9 -10 6 -6 11 15 19 19 7 23 11
11 11 -10 1 -15 6 -12 11 4 6 10 8 15 5 16 -10 -3 40 -21 56 -10 9 -16 19 -12
23 3 3 -2 6 -11 6 -10 0 -27 -11 -38 -26 -11 -14 -22 -23 -24 -21 -7 7 26 194
51 286 39 146 43 151 150 212 52 29 90 56 84 60 -6 4 -8 16 -4 28 3 12 11 18
17 15 7 -4 6 -9 -2 -14 -8 -5 -9 -10 -2 -14 16 -10 25 30 12 54 -6 11 -8 20
-5 20 3 0 1 9 -5 20 -10 18 -8 20 19 20 30 0 50 28 36 50 -3 5 -1 10 4 10 6 0
11 -4 11 -10 0 -5 7 -7 15 -4 8 3 13 11 12 16 -1 6 4 13 12 16 8 3 11 0 7 -7
-10 -16 3 -14 20 4 19 19 26 19 71 0z m2663 -14 c0 -6 -4 -13 -10 -16 -5 -3
-10 1 -10 9 0 9 5 16 10 16 6 0 10 -4 10 -9z m561 -24 c-10 -9 -11 -8 -5 6 3
10 9 15 12 12 3 -3 0 -11 -7 -18z m-951 -90 c0 -9 2 -9 8 0 5 9 16 4 38 -16
17 -16 40 -32 52 -35 12 -4 22 -11 22 -15 0 -10 50 -34 75 -35 11 -1 31 -7 44
-15 13 -7 20 -8 17 -2 -4 6 7 5 26 -3 18 -8 47 -16 63 -17 17 -2 33 -8 36 -13
10 -13 59 -16 59 -4 0 7 4 7 13 0 7 -6 24 -8 37 -5 13 3 21 2 18 -3 -8 -13 81
-15 103 -3 15 8 19 6 19 -8 0 -24 -27 -63 -73 -108 -45 -44 -47 -44 -225 8
-140 41 -214 79 -267 138 -35 39 -85 134 -100 189 -6 21 -3 20 14 -8 12 -18
21 -38 21 -45z m1025 -29 c-32 -61 -180 -195 -260 -233 -71 -34 -135 -54 -135
-41 0 4 7 23 15 44 21 48 53 82 80 82 11 0 25 4 31 10 6 6 15 6 24 0 10 -7 11
-10 3 -10 -7 0 -13 -4 -13 -9 0 -18 41 2 70 35 16 19 34 34 40 34 7 0 29 17
50 38 49 47 104 91 108 87 2 -2 -4 -18 -13 -37z m1705 34 c0 -4 28 -6 63 -5
40 1 101 -8 172 -25 94 -23 110 -30 110 -47 1 -11 -4 -24 -10 -28 -7 -6 -6
-10 3 -14 6 -2 12 -11 12 -19 0 -8 7 -14 15 -14 8 0 15 -9 15 -19 0 -10 8 -22
18 -26 15 -6 14 -8 -8 -21 -22 -13 -22 -14 -3 -9 12 3 24 1 28 -5 3 -5 1 -10
-4 -10 -6 0 -11 -7 -11 -15 0 -8 -4 -15 -10 -15 -16 0 -11 -28 7 -39 13 -7 15
-12 5 -23 -9 -11 -8 -19 3 -34 8 -10 15 -29 15 -41 0 -12 4 -24 9 -27 5 -3 11
-17 13 -31 6 -29 2 -29 -97 10 -69 27 -226 65 -219 53 3 -4 12 -8 20 -8 8 0
14 -4 14 -8 0 -5 33 -17 73 -27 109 -28 221 -88 246 -131 16 -27 19 -40 11
-49 -8 -9 -8 -15 0 -20 5 -3 10 -10 10 -14 0 -5 -39 11 -87 35 -155 77 -415
150 -559 156 -56 3 -58 4 -42 20 10 10 25 18 33 18 8 0 15 5 15 12 0 6 3 9 6
5 4 -3 13 0 21 8 15 16 34 18 143 17 61 -1 63 0 25 8 -34 8 -128 6 -225 -5
-14 -1 -53 -6 -87 -10 -53 -6 -63 -5 -63 8 0 9 12 22 26 29 31 15 72 88 77
138 4 42 19 72 63 127 36 44 119 97 137 86 6 -3 7 -1 3 5 -4 7 -2 12 3 12 6 0
11 -3 11 -8z m-5315 -52 c12 0 25 -21 25 -39 0 -4 -12 -13 -27 -20 -37 -17
-48 -2 -32 44 8 20 15 32 17 26 2 -6 10 -11 17 -11z m1522 -13 c40 -14 100
-40 134 -58 64 -34 148 -103 138 -113 -3 -3 -30 -1 -60 5 -30 6 -74 15 -99 19
-116 22 -317 2 -502 -49 -125 -35 -181 -45 -208 -36 -25 8 -80 101 -80 136 0
38 27 57 121 80 150 38 229 48 359 45 103 -3 138 -8 197 -29z m3033 -107 c46
-23 90 -91 90 -138 0 -127 -123 -193 -236 -127 -115 67 -112 200 5 262 54 28
90 29 141 3z m1177 -12 c-3 -7 -5 -2 -5 12 0 14 2 19 5 13 2 -7 2 -19 0 -25z
m-6 -111 c-8 -8 -11 -7 -11 4 0 20 13 34 18 19 3 -7 -1 -17 -7 -23z m-3949 -6
c47 -11 104 -29 125 -40 56 -29 271 -249 282 -289 13 -42 5 -41 -86 11 -123
70 -136 75 -193 87 -30 6 -104 23 -164 37 -94 22 -125 25 -217 21 -84 -4 -115
-10 -141 -26 -48 -29 -215 -89 -268 -96 l-45 -7 -81 79 c-91 87 -93 97 -26
131 52 26 163 60 252 77 41 7 102 20 135 29 83 20 309 13 427 -14z m-1133
-160 c14 -9 -50 -55 -141 -102 -50 -26 -239 -150 -283 -187 -40 -33 -165 -143
-187 -164 -10 -10 -20 -13 -23 -8 -4 6 -2 10 3 10 6 0 8 9 5 20 -3 11 -8 18
-12 16 -3 -2 -6 7 -6 20 0 13 6 24 13 24 12 0 16 12 13 38 -1 8 6 21 16 29 10
8 12 12 6 8 -7 -3 -13 -1 -13 5 0 12 24 40 34 40 3 0 23 16 43 35 20 19 41 35
46 35 5 0 17 9 26 19 19 22 184 109 218 115 11 3 29 9 39 14 11 6 55 17 99 25
44 8 82 15 85 16 3 0 11 -3 19 -8z m1847 0 c8 -8 57 -18 199 -42 104 -17 101
-14 114 -116 9 -60 5 -65 -59 -76 -19 -4 -78 -15 -130 -26 -121 -26 -130 -26
-123 -1 3 11 10 17 16 13 7 -4 8 0 2 13 -4 10 -21 66 -37 123 -23 83 -26 106
-16 113 17 10 22 10 34 -1z m1157 -14 c21 -8 45 -24 53 -36 8 -12 20 -19 25
-16 5 4 9 1 9 -5 0 -6 5 -8 10 -5 23 14 70 24 64 13 -4 -6 2 -8 17 -4 13 3 18
3 12 0 -7 -3 -13 -10 -13 -15 0 -6 4 -8 9 -4 5 3 13 0 17 -6 5 -9 -13 -10 -72
-5 -43 4 -99 3 -124 -2 -68 -12 -80 -7 -80 37 0 33 14 61 30 61 3 0 22 -6 43
-13z m-478 -7 c3 -5 3 -39 -1 -75 l-7 -65 -33 0 c-62 0 -69 77 -12 125 32 27
44 30 53 15z m153 -40 c12 -19 21 -41 20 -49 -3 -15 -63 -32 -123 -35 -27 -1
-30 2 -33 33 -3 33 -3 33 32 27 31 -6 36 -4 36 13 0 24 -35 37 -55 21 -10 -8
-15 -9 -15 -2 0 22 39 39 77 33 28 -5 43 -15 61 -41z m180 -12 c2 -12 -7 -20
-35 -27 -60 -17 -74 -14 -69 12 3 12 5 27 5 32 2 19 95 3 99 -17z m-1768 -13
l75 -13 -52 -1 c-135 -3 -344 -63 -430 -124 -46 -32 -56 -53 -23 -44 17 4 20
0 20 -34 0 -33 -4 -40 -26 -45 -34 -9 -119 18 -164 51 l-35 26 69 -5 c50 -4
72 -1 82 8 11 12 11 16 -1 26 -8 7 -22 10 -30 6 -30 -11 -14 14 28 45 136 101
303 137 487 104z m1224 -1 c48 -17 82 -53 73 -77 -5 -15 -124 -43 -135 -33 -8
8 -21 109 -15 119 6 11 24 9 77 -9z m-2229 -26 c11 -36 75 -137 102 -162 l25
-23 -84 -70 c-81 -69 -193 -182 -281 -286 -46 -54 -160 -236 -171 -274 -4 -13
-14 -21 -26 -20 -10 1 -18 4 -18 7 4 41 -3 49 -35 43 -23 -3 -39 0 -50 11 -8
9 -20 16 -25 16 -6 0 -13 7 -16 16 -3 8 -9 13 -14 10 -4 -2 -14 -1 -22 5 -12
7 -12 9 3 9 10 0 16 4 13 9 -3 5 -15 7 -27 4 -12 -4 -25 0 -31 8 -8 11 -9 11
-5 -3 3 -9 -1 -19 -9 -22 -8 -3 -14 -1 -14 4 0 6 -6 9 -12 7 -7 -1 -14 9 -16
22 -2 13 -12 26 -23 28 -10 3 -19 13 -20 22 -1 9 -4 5 -9 -9 -7 -20 -8 -21 -9
-5 -2 87 43 156 209 322 123 123 268 229 410 300 118 58 145 64 155 31z m4705
-19 c89 -23 217 -82 312 -145 76 -51 154 -114 141 -114 -5 0 -10 -11 -11 -25
-1 -18 2 -23 13 -19 8 4 15 2 15 -3 0 -5 -11 -10 -25 -11 -14 -1 -25 4 -25 11
0 9 -2 9 -9 -1 -4 -8 -17 -12 -27 -10 -10 2 -19 -3 -20 -9 -1 -7 -2 -17 -3
-23 0 -5 -8 -10 -17 -10 -8 0 -12 -4 -9 -10 3 -5 -1 -10 -9 -10 -13 0 -14 -5
-5 -27 25 -65 18 -68 -31 -15 -27 28 -51 52 -53 52 -3 0 -31 25 -62 55 -32 30
-61 53 -65 50 -4 -3 -11 2 -14 11 -4 10 -14 14 -26 11 -11 -3 -20 -1 -20 4 0
15 -33 49 -48 49 -7 0 -11 4 -8 8 3 5 -8 16 -25 26 -29 17 -39 36 -18 36 5 0
7 5 4 10 -6 10 -46 7 -66 -6 -8 -4 -9 2 -5 23 6 27 4 31 -43 53 -42 19 -53 21
-66 10 -18 -15 -19 -9 -4 24 7 14 21 27 33 29 35 6 117 -4 196 -24z m-3506
-35 c75 -8 376 -131 376 -154 0 -15 -33 -26 -181 -56 -123 -26 -138 -27 -221
-16 -72 9 -113 8 -211 -4 -67 -8 -131 -18 -142 -21 -27 -9 -54 -4 -87 15 -29
17 -39 35 -13 26 8 -3 23 1 34 8 20 14 20 15 -17 45 -40 32 -71 101 -49 107
39 11 268 56 297 59 37 4 130 0 214 -9z m-2044 -24 c0 -5 -5 -10 -11 -10 -5 0
-7 5 -4 10 3 6 8 10 11 10 2 0 4 -4 4 -10z m4095 -17 c101 -29 208 -76 274
-123 l58 -41 6 -82 c3 -54 1 -86 -7 -93 -6 -6 -45 -24 -86 -39 -122 -45 -298
-141 -585 -320 -99 -62 -199 -122 -223 -134 -24 -12 -67 -37 -96 -56 -67 -43
-208 -124 -411 -238 -357 -199 -748 -359 -1005 -411 -168 -34 -312 -46 -436
-36 -187 16 -291 36 -303 59 -7 13 -8 54 -2 83 0 4 22 1 49 -7 86 -25 249 -38
377 -30 185 12 170 8 168 41 -2 25 0 27 10 13 15 -19 47 -21 47 -2 0 7 6 13
14 13 9 0 12 -7 9 -20 -3 -11 0 -20 6 -20 6 0 10 3 10 8 -3 19 2 23 16 12 12
-10 15 -10 15 4 0 9 -1 17 -2 19 -2 1 4 10 12 18 21 23 53 18 65 -8 5 -13 16
-23 23 -23 9 0 8 7 -4 28 -12 19 -12 22 -1 9 13 -16 16 -16 30 -2 9 8 21 15
27 15 6 0 10 8 8 17 -3 18 -51 38 -71 30 -20 -7 -32 -3 -29 9 4 18 -12 24 -28
12 -12 -8 -12 -9 3 -4 20 6 23 -12 3 -20 -8 -3 -16 -14 -19 -25 -8 -29 -37
-24 -37 6 0 15 -5 24 -12 23 -7 -2 -12 4 -10 12 2 13 0 12 -10 -1 -7 -9 -19
-14 -27 -11 -8 3 -11 0 -7 -7 4 -6 16 -11 27 -11 16 0 18 -3 9 -20 -7 -12 -16
-17 -27 -13 -15 6 -14 7 3 14 17 7 17 8 1 8 -23 1 -34 30 -16 42 10 6 11 9 1
9 -21 0 -37 -47 -22 -65 8 -10 9 -15 1 -15 -13 0 -26 45 -16 59 3 6 1 11 -5
11 -6 0 -9 4 -5 9 3 5 1 12 -4 16 -6 3 -8 -3 -6 -15 2 -11 0 -20 -6 -20 -5 0
-9 5 -9 10 0 7 -8 6 -22 -1 -22 -12 -22 -11 -8 6 14 17 14 18 -5 8 -13 -8 -25
-8 -38 -1 -17 8 -18 7 -12 -14 4 -15 3 -19 -3 -10 -5 8 -12 13 -16 12 -4 -1
-10 0 -14 3 -4 2 -2 3 5 1 14 -3 25 34 12 42 -5 3 -9 0 -9 -6 0 -7 -7 -9 -16
-6 -8 3 -13 2 -10 -3 3 -5 -1 -11 -9 -15 -9 -3 -15 0 -15 9 0 7 -10 17 -22 21
-13 3 -31 13 -40 22 -26 22 -22 6 4 -18 18 -17 20 -22 8 -33 -10 -10 -12 -9
-6 7 5 15 2 17 -13 13 -14 -3 -18 -1 -14 9 3 10 0 12 -10 9 -8 -4 -17 1 -21
11 -5 13 -9 14 -21 4 -14 -12 -35 -6 -35 10 0 5 8 7 18 3 9 -3 14 -3 10 1 -3
4 -21 10 -40 12 -50 7 -61 13 -54 29 5 14 -17 21 -47 16 -4 -1 -2 9 5 20 11
17 11 23 0 26 -6 3 -9 9 -6 14 5 9 12 58 17 126 1 11 5 19 10 16 4 -2 7 -2 7
1 0 2 3 12 7 22 5 13 3 15 -7 9 -10 -6 -11 0 -6 26 4 19 7 44 8 56 0 19 2 20
14 8 11 -10 12 -20 4 -41 -6 -15 -9 -29 -6 -31 11 -12 24 59 15 89 -11 40 -11
38 2 38 5 0 7 -4 4 -10 -3 -5 -2 -10 4 -10 5 0 11 -6 14 -12 2 -7 2 -1 0 15
-5 27 11 38 20 15 4 -10 8 -9 16 2 6 8 11 20 11 25 0 6 -4 5 -8 -2 -5 -8 -12
-8 -26 2 -10 8 -15 19 -11 25 6 9 10 9 16 -1 7 -11 9 -10 9 5 0 38 93 142 211
236 72 57 267 158 369 190 258 82 966 242 1260 286 96 14 198 30 225 34 28 5
140 7 250 5 161 -2 214 -7 270 -22z m1070 -38 c61 -21 139 -52 175 -70 174
-87 403 -309 475 -460 30 -62 57 -204 42 -222 -6 -9 -5 -13 4 -14 10 0 11 -2
1 -6 -6 -2 -9 -10 -5 -16 3 -7 2 -9 -2 -4 -5 4 -10 18 -12 30 -2 12 -14 32
-27 43 -14 12 -22 25 -19 28 3 3 -2 8 -11 12 -9 3 -16 12 -16 20 0 8 -4 14
-10 14 -5 0 -6 -7 -3 -17 5 -12 3 -14 -7 -8 -9 5 -11 4 -6 -3 4 -7 1 -12 -6
-12 -11 0 -10 -2 0 -9 11 -7 11 -9 -2 -14 -8 -3 -17 -1 -20 6 -2 7 -5 5 -5 -5
-1 -9 5 -18 12 -21 6 -3 2 -4 -10 -4 -13 1 -23 8 -24 17 0 11 -2 10 -8 -3 -4
-10 -9 -17 -12 -15 -3 2 -13 -3 -22 -10 -12 -10 -14 -19 -6 -38 7 -19 6 -23
-4 -17 -19 12 -47 14 -47 4 0 -5 6 -12 13 -14 9 -4 9 -6 0 -6 -6 -1 -15 4 -18
9 -11 17 -24 11 -20 -9 3 -14 -1 -18 -11 -14 -8 3 -14 0 -14 -6 0 -6 -5 -11
-11 -11 -5 0 -8 4 -5 8 3 5 -1 9 -9 9 -8 0 -16 -6 -19 -14 -3 -8 2 -13 14 -13
10 0 21 -4 24 -9 4 -5 -3 -7 -14 -4 -10 3 -26 -2 -35 -11 -9 -9 -12 -16 -5
-16 6 0 9 -4 5 -9 -3 -5 -1 -12 4 -16 6 -3 8 4 6 16 -4 18 -2 19 11 8 14 -12
14 -15 -5 -30 -15 -12 -17 -19 -9 -22 10 -4 10 -6 0 -6 -7 -1 -15 6 -18 14 -4
8 -10 12 -15 9 -5 -3 -9 2 -9 10 0 9 -5 16 -12 16 -6 0 -9 3 -5 6 3 3 -9 29
-27 57 -18 29 -45 75 -59 102 -34 68 -131 198 -196 262 -29 29 -87 76 -129
106 -113 78 -300 167 -336 158 -14 -3 -37 21 -32 35 2 6 -1 20 -8 29 -11 16
-13 16 -27 -1 -7 -9 -12 -20 -10 -23 3 -3 -3 -7 -12 -9 -9 -2 -17 2 -17 8 0 6
4 8 10 5 6 -3 7 1 4 10 -12 30 122 134 236 182 82 35 189 28 335 -22z m-4021
-159 c7 -28 50 -62 87 -70 13 -3 39 -9 58 -15 19 -6 37 -9 40 -6 16 9 168 -18
197 -36 17 -10 38 -19 47 -19 39 0 20 -28 -94 -137 -154 -149 -266 -313 -323
-476 -12 -34 -28 -72 -34 -84 -17 -31 -42 -30 -42 1 0 14 -5 28 -12 32 -6 4
-8 3 -5 -3 4 -7 -7 -12 -28 -15 -33 -4 -34 -3 -17 16 12 14 13 17 2 11 -25
-15 -54 -11 -72 10 -11 12 -17 15 -18 7 0 -9 -5 -10 -18 -3 -13 7 -22 7 -30
-1 -8 -8 -15 -6 -27 6 -12 12 -13 16 -3 16 10 0 9 3 -2 10 -18 11 -82 2 -92
-14 -5 -7 -8 -4 -8 8 0 20 0 20 -16 0 -8 -10 -13 -13 -9 -6 4 7 0 12 -9 12 -9
0 -16 6 -16 14 0 9 -21 15 -70 20 -54 6 -70 11 -70 23 0 30 69 222 95 262 14
22 25 43 25 45 0 21 100 145 188 234 150 153 261 216 276 158z m4886 -6 c0 -5
-4 -10 -10 -10 -5 0 -10 5 -10 10 0 6 5 10 10 10 6 0 10 -4 10 -10z m-6115
-82 c-2 -29 -8 -112 -12 -185 -4 -72 -11 -134 -14 -138 -12 -11 -21 93 -15
158 18 169 21 191 31 207 12 19 14 10 10 -42z m5016 -137 c50 -32 112 -91 104
-99 -2 -3 -14 7 -25 21 -11 14 -47 42 -80 62 -33 20 -60 38 -60 41 0 10 19 2
61 -25z m-246 -21 c84 -40 75 -36 103 -45 12 -4 22 -10 22 -14 0 -4 15 -12 33
-19 30 -11 141 -101 125 -102 -4 0 -13 6 -20 13 -19 17 -58 38 -58 31 0 -4 89
-113 110 -134 3 -3 26 -38 53 -78 54 -82 100 -178 117 -243 6 -24 14 -53 17
-63 4 -15 1 -18 -11 -13 -10 4 -15 3 -12 -2 3 -5 -1 -22 -9 -37 -13 -26 -20
-21 -16 12 1 6 -5 11 -13 11 -8 0 -11 -7 -8 -19 2 -10 -1 -18 -7 -18 -6 0 -11
6 -12 13 0 10 -2 10 -6 0 -2 -7 -11 -13 -18 -13 -8 0 -17 -10 -21 -22 -6 -19
-7 -19 -16 -4 -5 9 -13 14 -19 11 -5 -4 -9 -1 -9 5 0 6 -5 8 -11 5 -6 -5 -4
-12 8 -22 10 -8 13 -12 7 -9 -6 3 -23 -2 -38 -9 -33 -17 -55 -9 -29 10 17 13
17 14 -4 12 -12 0 -26 -11 -32 -24 -6 -13 -16 -23 -23 -23 -9 0 -8 3 2 10 12
8 10 10 -11 10 -14 0 -30 -5 -37 -12 -9 -9 -13 -7 -18 5 -5 15 -8 15 -21 2
-19 -20 -40 -19 -52 3 -8 13 -13 14 -19 4 -5 -7 -16 -10 -25 -6 -10 4 -17 1
-17 -6 0 -7 -7 -10 -14 -7 -9 4 -17 -2 -21 -14 -5 -14 -15 -19 -38 -18 -28 2
-29 2 -7 6 14 3 28 10 32 16 12 19 -14 26 -39 10 -13 -8 -23 -14 -24 -12 0 2
-2 12 -4 22 -2 11 -7 22 -11 25 -4 4 -4 -1 -1 -10 8 -23 -6 -30 -38 -18 -17 7
-24 7 -20 0 3 -6 14 -10 23 -11 9 0 12 -3 6 -5 -17 -7 -5 -44 15 -45 10 0 11
-2 4 -6 -7 -2 -13 -9 -13 -15 0 -6 6 -8 14 -5 7 3 19 0 25 -6 14 -14 14 -2 0
26 -9 20 -9 20 4 5 8 -10 17 -15 20 -11 4 3 7 2 7 -3 0 -5 4 -16 10 -24 7 -12
12 -11 30 5 18 16 20 16 14 2 -3 -10 -1 -17 5 -17 6 0 11 6 11 13 1 7 5 6 13
-5 10 -12 17 -14 31 -6 15 8 17 8 11 -2 -6 -10 -4 -12 8 -7 10 3 17 3 17 -2 0
-4 6 -8 13 -8 6 0 37 -4 67 -7 155 -18 229 -19 255 -2 22 15 25 15 25 1 0 -11
4 -13 13 -8 6 4 20 6 30 5 10 -2 26 2 35 10 13 10 14 10 8 0 -6 -9 -1 -12 16
-11 12 1 38 1 56 1 30 -2 32 -4 32 -42 0 -30 -5 -42 -21 -50 -27 -15 -448 -15
-549 0 -215 31 -419 91 -705 207 -88 36 -209 85 -270 108 -172 66 -305 133
-305 154 0 4 18 15 40 24 22 8 40 12 40 8 0 -11 174 -91 285 -131 94 -34 126
-42 141 -36 8 3 12 2 9 -4 -3 -5 16 -16 42 -24 26 -8 71 -23 99 -34 57 -22 63
-15 27 34 -18 23 -22 25 -23 11 0 -11 -5 -15 -11 -11 -6 3 -9 15 -6 25 7 26
-9 34 -23 12 -7 -12 -10 -13 -7 -3 2 8 -7 23 -19 33 -19 15 -26 16 -43 5 -16
-10 -23 -10 -33 0 -9 9 -8 12 5 12 10 0 17 8 17 18 0 13 -2 14 -9 3 -11 -17
-34 -4 -27 15 6 15 -31 36 -46 27 -5 -2 -8 3 -8 12 0 9 -8 28 -17 42 -10 15
-13 24 -6 20 17 -11 25 9 11 25 -19 20 -17 63 4 62 10 -1 14 4 11 12 -3 8 1
14 8 14 18 0 115 88 112 100 -2 5 5 9 15 7 17 -2 49 18 111 70 21 18 23 22 9
23 -10 0 -18 -5 -18 -11 0 -5 -4 -8 -10 -4 -5 3 -1 14 10 25 11 11 20 24 20
29 0 11 100 54 107 47 4 -3 11 1 17 9 6 8 61 37 121 65 131 59 163 60 270 10z
m1588 -56 c83 -115 137 -280 138 -418 2 -159 -104 -343 -257 -451 -37 -25 -68
-45 -70 -43 -1 2 6 57 16 123 10 66 18 110 19 98 0 -13 7 -23 14 -23 35 0 152
167 182 259 30 90 5 265 -60 421 -36 86 -29 99 18 34z m-6063 -145 c0 -5 -4
-9 -10 -9 -5 0 -10 7 -10 16 0 8 5 12 10 9 6 -3 10 -10 10 -16z m3880 -19 c0
-5 -2 -10 -4 -10 -3 0 -8 5 -11 10 -3 6 -1 10 4 10 6 0 11 -4 11 -10z m986
-77 c-7 -8 -36 16 -36 30 0 6 -7 20 -17 31 -9 12 1 4 21 -17 21 -21 35 -41 32
-44z m-1011 57 c3 -5 1 -10 -4 -10 -6 0 -11 5 -11 10 0 6 2 10 4 10 3 0 8 -4
11 -10z m-3711 -49 c4 -5 -3 -7 -14 -4 -23 6 -26 13 -6 13 8 0 17 -4 20 -9z
m4753 -51 c3 -10 2 -11 -4 -4 -4 6 -15 14 -23 17 -11 5 -9 6 4 4 11 -1 21 -9
23 -17z m587 -21 c-11 -12 -13 -19 -5 -19 7 0 9 -5 5 -12 -5 -8 -11 -5 -17 10
-6 12 -14 22 -19 22 -4 0 -8 5 -8 12 0 9 3 9 12 0 17 -17 31 -15 25 2 -4 10
-1 13 9 9 13 -5 13 -8 -2 -24z m-4283 -72 c-10 -9 -11 -8 -5 6 3 10 9 15 12
12 3 -3 0 -11 -7 -18z m-818 -54 c-7 -2 -19 -2 -25 0 -7 3 -2 5 12 5 14 0 19
-2 13 -5z m217 -33 c0 -5 -5 -10 -11 -10 -5 0 -7 5 -4 10 3 6 8 10 11 10 2 0
4 -4 4 -10z m30 -24 c0 -2 -7 -6 -15 -10 -8 -3 -15 -1 -15 4 0 6 7 10 15 10 8
0 15 -2 15 -4z m4657 -22 c-3 -3 -12 -4 -19 -1 -8 3 -5 6 6 6 11 1 17 -2 13
-5z m-4462 -44 c3 -6 -1 -7 -9 -4 -18 7 -21 14 -7 14 6 0 13 -4 16 -10z m3005
-54 c0 -3 -4 -8 -10 -11 -5 -3 -10 -1 -10 4 0 6 5 11 10 11 6 0 10 -2 10 -4z
m1945 -27 c4 -12 8 -72 8 -133 1 -163 -34 -278 -105 -346 -42 -40 -283 -162
-373 -188 -214 -63 -395 -36 -520 79 -46 43 -54 63 -13 37 21 -13 71 -26 226
-57 78 -16 139 -14 169 6 16 11 42 50 64 98 32 67 38 75 39 50 1 -54 11 -60
66 -36 27 12 60 23 74 25 33 4 80 27 80 38 0 5 5 6 11 3 6 -4 9 0 7 11 -2 13
2 18 15 16 9 -2 17 2 17 8 0 5 7 10 15 10 8 0 15 5 15 11 0 5 4 8 10 4 11 -7
51 14 63 32 4 7 14 10 22 7 30 -12 68 112 81 264 7 81 16 102 29 61z m-6035
-34 c5 3 11 1 15 -5 3 -5 26 -18 51 -29 25 -11 66 -39 91 -61 25 -22 71 -56
102 -77 31 -20 67 -48 81 -60 29 -27 67 -27 62 0 -2 9 2 17 8 17 5 0 10 -7 10
-15 0 -8 4 -15 9 -15 4 0 22 -30 39 -67 41 -91 47 -113 30 -113 -28 0 -177 81
-253 138 -96 72 -242 221 -251 256 -3 14 -10 26 -15 26 -5 0 -9 8 -9 18 1 16
1 16 11 -1 6 -9 14 -15 19 -12z m3489 -55 c63 -31 92 -126 55 -178 -12 -17
-19 -20 -34 -12 -15 8 -25 4 -52 -20 -19 -18 -39 -28 -48 -24 -8 3 -28 8 -44
11 -35 7 -66 55 -66 104 0 46 35 99 80 121 45 23 62 22 109 -2z m1308 -42 c-3
-8 -6 -5 -6 6 -1 11 2 17 5 13 3 -3 4 -12 1 -19z m33 18 c0 -3 -4 -8 -10 -11
-5 -3 -10 -1 -10 4 0 6 5 11 10 11 6 0 10 -2 10 -4z m-142 -61 c-3 -3 -9 2
-12 12 -6 14 -5 15 5 6 7 -7 10 -15 7 -18z m182 -9 c0 -2 -8 -10 -17 -17 -16
-13 -17 -12 -4 4 13 16 21 21 21 13z m-2895 -66 c3 -5 1 -10 -4 -10 -6 0 -11
5 -11 10 0 6 2 10 4 10 3 0 8 -4 11 -10z m-1355 -84 c18 -20 37 -36 41 -36 5
0 18 -8 29 -17 11 -10 23 -17 25 -15 3 1 20 -5 38 -15 17 -9 36 -16 40 -15 4
1 10 -5 13 -13 4 -8 12 -15 20 -15 8 0 14 -6 14 -13 0 -7 20 -21 45 -31 25
-11 45 -23 45 -27 0 -5 6 -6 13 -3 7 2 23 -4 36 -15 13 -11 39 -25 60 -32 20
-6 41 -15 46 -19 6 -4 29 -11 52 -15 l42 -7 -14 44 c-17 56 -27 134 -14 121 5
-5 29 -38 52 -74 73 -110 125 -127 295 -95 39 7 72 11 72 9 0 -3 6 0 14 6 7 6
21 9 29 5 22 -8 -24 -46 -96 -80 -142 -64 -287 -64 -512 1 -89 25 -303 133
-345 174 -44 42 -78 126 -85 209 -4 41 -2 49 4 30 5 -14 23 -42 41 -62z m3067
60 c19 5 22 1 25 -28 2 -18 1 -54 0 -79 l-4 -46 -66 -1 c-37 0 -72 4 -79 9 -6
6 -26 8 -42 6 -41 -7 -39 2 10 37 23 16 50 44 61 63 11 18 27 33 36 34 11 0
12 2 4 6 -6 2 -9 9 -6 15 4 5 13 3 23 -6 10 -9 26 -13 38 -10z m-477 -16 c0
-5 -6 -11 -12 -13 -8 -3 -6 -6 5 -6 9 -1 17 6 17 15 0 19 25 13 26 -7 2 -35 5
-40 15 -33 8 4 7 9 -2 15 -9 6 -10 9 -2 9 16 0 53 -54 53 -79 0 -28 -29 -41
-89 -41 -50 0 -51 0 -53 33 -2 40 1 98 7 114 4 13 35 7 35 -7z m604 -214 c67
-28 73 -79 66 -561 -2 -210 -9 -243 -50 -265 -24 -13 -704 -26 -816 -15 -69 6
-81 10 -106 37 -29 31 -36 62 -17 73 6 4 16 0 22 -8 31 -37 61 -47 142 -45 44
0 64 3 45 5 -82 9 -138 25 -158 46 -23 24 -30 81 -31 255 -1 59 -5 91 -11 87
-7 -4 -10 56 -10 172 0 139 3 184 14 199 13 17 31 19 208 24 419 12 667 11
702 -4z m1589 -415 c4 -18 7 -51 5 -74 -3 -41 -3 -41 -63 -59 -92 -27 -101
-25 -71 15 14 19 31 49 37 68 13 38 58 91 73 86 6 -2 14 -18 19 -36z"/>
<path d="M6597 9326 c-4 -10 -1 -13 8 -9 8 3 12 9 9 14 -7 12 -11 11 -17 -5z"/>
<path d="M6672 9084 c-7 -8 -12 -20 -9 -27 2 -7 9 -2 16 11 15 28 11 36 -7 16z"/>
<path d="M6620 8984 c0 -21 29 -39 42 -26 11 11 6 14 -18 11 -4 0 -11 5 -15
13 -5 8 -9 9 -9 2z"/>
<path d="M6585 8950 c3 -5 8 -10 11 -10 2 0 4 5 4 10 0 6 -5 10 -11 10 -5 0
-7 -4 -4 -10z"/>
<path d="M6555 8930 c-3 -5 -1 -10 4 -10 6 0 11 5 11 10 0 6 -2 10 -4 10 -3 0
-8 -4 -11 -10z"/>
<path d="M4510 8769 c-8 -5 -13 -9 -10 -10 3 0 13 -2 23 -4 9 -2 17 1 17 5 0
15 -15 19 -30 9z"/>
<path d="M4355 9149 c-4 -6 -5 -12 -2 -15 2 -3 7 2 10 11 7 17 1 20 -8 4z"/>
<path d="M4285 9090 c-3 -5 -2 -10 4 -10 5 0 13 5 16 10 3 6 2 10 -4 10 -5 0
-13 -4 -16 -10z"/>
<path d="M7457 8182 c-10 -10 -17 -25 -17 -33 0 -9 5 -7 12 6 6 11 16 23 22
27 6 4 8 9 5 13 -3 3 -13 -3 -22 -13z"/>
<path d="M7480 8170 c-13 -8 -13 -10 2 -10 9 0 20 5 23 10 8 13 -5 13 -25 0z"/>
<path d="M7377 8093 c-4 -23 -4 -23 17 -6 11 10 22 18 24 19 1 1 -6 4 -17 7
-14 3 -20 -1 -24 -20z"/>
<path d="M7325 8072 c-8 -23 0 -24 18 -4 14 15 15 19 2 19 -8 0 -17 -7 -20
-15z"/>
<path d="M4045 7773 c-243 -19 -484 -120 -671 -280 -105 -90 -202 -247 -224
-362 -21 -110 -5 -214 40 -264 l28 -32 38 18 c21 10 72 39 113 64 248 151 427
199 789 212 l202 7 42 30 c28 20 53 50 73 88 25 50 30 72 33 155 3 80 0 106
-17 153 -48 127 -130 189 -271 208 -74 9 -96 10 -175 3z"/>
<path d="M5659 7744 c-86 -26 -140 -71 -179 -149 -33 -66 -35 -74 -35 -175 1
-112 11 -148 62 -223 43 -62 66 -69 268 -78 300 -14 439 -62 679 -233 135 -96
124 -91 152 -65 36 34 56 116 56 226 -1 115 -17 174 -78 278 -111 190 -370
373 -593 420 -91 19 -270 19 -332 -1z"/>
<path d="M3815 6963 c-58 -9 -170 -45 -228 -74 -223 -110 -340 -306 -341 -574
-1 -91 3 -122 23 -179 33 -96 45 -106 132 -106 38 0 116 10 172 21 94 20 111
21 218 10 64 -7 152 -20 195 -31 94 -22 110 -19 27 5 -85 25 -226 45 -323 45
-138 0 -167 40 -86 119 l44 43 66 -32 c69 -34 104 -36 171 -10 17 6 32 11 33
10 2 -1 9 6 16 15 10 14 19 12 84 -22 54 -28 72 -42 72 -58 0 -36 -24 -68 -60
-81 -23 -8 -28 -13 -15 -13 51 -2 116 64 159 162 39 88 51 170 37 261 -19 128
-67 202 -201 309 -31 25 -32 28 -10 22 111 -32 205 -93 265 -175 54 -74 104
-190 122 -281 9 -46 18 -91 21 -99 9 -31 30 57 31 133 3 318 -214 564 -514
581 -44 2 -93 2 -110 -1z m195 -242 c37 -27 51 -60 47 -110 -12 -119 -164
-143 -224 -36 -40 72 -24 121 51 156 46 22 88 19 126 -10z m-609 -317 c-4
-112 29 -209 96 -284 25 -28 44 -52 42 -54 -6 -5 -201 -27 -205 -23 -8 8 17
297 30 342 14 53 34 105 38 105 2 0 1 -39 -1 -86z"/>
<path d="M5875 6943 c-37 -8 -130 -47 -166 -69 -20 -12 -60 -50 -91 -83 -131
-145 -178 -336 -129 -520 23 -87 71 -161 143 -221 l51 -44 -37 53 c-39 58 -43
73 -23 93 7 7 15 18 18 23 2 6 13 11 24 11 11 1 33 7 49 13 22 9 31 9 36 0 11
-16 137 -7 177 13 18 9 35 12 40 7 5 -5 30 -9 57 -10 30 -2 50 -7 53 -16 3 -7
13 -12 22 -11 18 3 26 -29 17 -67 -5 -19 -15 -24 -58 -30 -97 -12 -209 -35
-226 -46 -16 -10 -15 -10 1 -5 89 28 237 31 362 7 28 -5 90 -12 139 -16 134
-11 99 9 -51 30 -168 23 -159 19 -134 58 71 107 108 237 97 335 -8 71 -51 162
-115 245 -28 37 -48 67 -43 67 4 0 29 -14 55 -30 162 -102 247 -287 247 -536
0 -111 2 -124 19 -134 16 -8 23 -5 40 23 31 51 44 122 44 247 0 103 -3 125
-31 207 -71 209 -211 349 -397 398 -56 14 -145 18 -190 8z m100 -223 c66 -32
83 -95 45 -158 -24 -39 -81 -66 -119 -57 -111 28 -145 178 -49 220 45 20 75
18 123 -5z"/>
<path d="M4993 6283 c-19 -2 -33 -10 -33 -18 0 -10 7 -12 29 -5 16 4 32 6 35
3 2 -3 41 -9 86 -14 100 -11 147 -34 221 -108 81 -82 113 -154 114 -257 0 -74
-2 -84 -29 -118 -85 -113 -298 -172 -471 -131 -109 25 -439 205 -377 205 15 0
6 45 -14 75 -15 21 -18 57 -7 69 11 11 10 47 -1 43 -28 -9 -50 -72 -50 -140
l0 -69 -59 5 c-68 6 -164 -6 -234 -29 -86 -28 -226 -102 -313 -165 -121 -87
-225 -146 -299 -169 -80 -25 -208 -27 -257 -4 -35 17 -104 88 -104 108 0 6 -9
22 -19 36 -18 22 -21 23 -45 10 -49 -26 -106 -176 -106 -278 0 -45 -4 -57 -27
-79 -16 -15 -21 -24 -11 -20 24 8 43 -12 63 -68 35 -98 111 -199 199 -264 47
-35 51 -41 50 -78 0 -21 -4 -45 -8 -51 -4 -7 9 -2 29 9 22 13 34 27 31 35 -8
20 9 18 105 -12 153 -48 444 -43 621 10 52 16 60 13 52 -21 -5 -17 -3 -22 7
-18 8 2 61 -29 119 -71 58 -42 137 -92 175 -111 39 -20 73 -40 76 -45 4 -6 24
-14 45 -19 22 -4 82 -20 134 -34 114 -32 301 -44 428 -27 173 24 410 128 525
233 50 45 71 58 80 51 17 -14 42 2 34 21 -3 8 0 20 6 27 9 10 9 14 -1 17 -6 3
-10 8 -7 13 5 8 52 -4 88 -22 26 -13 168 -28 268 -28 100 0 247 23 292 47 30
15 32 15 47 -8 8 -13 31 -42 51 -63 l36 -39 -5 31 c-2 18 -8 32 -13 32 -5 0
-9 6 -9 13 0 8 -9 22 -20 32 -11 10 -20 21 -20 24 0 4 28 23 63 43 84 48 176
140 206 206 27 57 35 62 51 32 6 -11 15 -20 21 -20 5 0 2 15 -8 33 -14 25 -18
58 -18 152 -1 109 -3 126 -29 189 -27 64 -90 146 -113 146 -6 0 -16 -21 -23
-47 -15 -60 -53 -111 -96 -129 -50 -21 -144 -17 -211 8 -71 26 -212 110 -313
185 -87 65 -252 146 -328 162 -29 6 -77 11 -106 11 l-54 0 -4 73 c-3 55 -11
86 -33 132 -43 85 -135 174 -228 220 -68 33 -85 38 -164 40 -48 2 -103 1 -120
-2z m-317 -626 c87 -47 191 -96 230 -108 l72 -22 -32 -53 c-130 -220 -476
-450 -836 -556 l-145 -43 -185 1 c-145 0 -199 4 -250 18 -98 27 -179 69 -240
126 -30 28 -48 48 -40 44 23 -11 104 -68 111 -78 4 -5 11 -6 17 -2 6 3 12 2
14 -4 1 -5 67 -22 145 -38 145 -28 288 -35 393 -18 102 17 401 106 425 128 5
4 15 8 22 8 7 0 37 16 67 35 30 19 57 35 60 35 11 0 96 64 96 72 0 13 -9 10
-71 -27 -33 -19 -64 -35 -70 -35 -5 0 -9 -4 -9 -8 0 -5 -6 -9 -12 -9 -20 -1
-113 -37 -116 -45 -2 -5 -8 -8 -13 -8 -6 0 -7 5 -4 10 10 16 -11 12 -25 -5
-10 -12 -10 -15 0 -15 8 0 10 -3 7 -6 -4 -4 -13 -1 -21 5 -16 14 -32 -2 -21
-20 4 -6 -2 -5 -13 2 -12 7 -18 17 -16 21 3 4 3 8 0 8 -13 0 -15 -20 -2 -33
12 -12 10 -14 -15 -14 -15 0 -26 4 -23 9 9 15 -34 8 -51 -8 -12 -13 -19 -13
-30 -4 -8 6 -23 9 -34 5 -36 -11 -101 -14 -101 -4 0 5 -5 9 -11 9 -6 0 -9 -6
-6 -13 5 -13 -5 -17 -46 -18 -10 0 -15 -5 -11 -11 5 -7 2 -8 -7 -3 -7 5 -22
10 -33 10 -11 1 -27 12 -37 23 -18 24 -44 29 -54 12 -5 -8 -11 -7 -21 1 -7 6
-12 14 -10 18 3 4 -18 6 -45 5 -27 0 -49 2 -49 5 0 3 -40 6 -88 6 -69 0 -97 4
-125 20 -20 11 -37 24 -37 28 0 5 -7 6 -16 3 -8 -3 -13 -2 -10 3 3 5 -10 11
-29 13 -19 2 -37 -1 -39 -7 -2 -5 -5 -2 -5 8 -1 10 -9 17 -21 17 -11 0 -20 5
-20 10 0 6 -9 10 -19 10 -23 0 -31 19 -31 73 0 23 -5 49 -11 57 -7 11 -9 -4
-6 -53 5 -82 -9 -68 -18 18 -6 52 8 211 19 223 2 2 23 -17 45 -41 61 -66 124
-90 241 -91 148 -1 253 42 483 198 84 57 170 112 193 124 86 44 226 73 325 67
48 -2 78 -15 215 -88z m1115 39 c47 -21 122 -66 174 -105 244 -184 363 -241
505 -241 92 0 176 47 205 115 l13 29 16 -54 c9 -31 16 -90 16 -140 0 -77 -4
-94 -31 -148 -75 -152 -268 -261 -478 -270 -253 -11 -530 76 -811 256 -149 95
-330 299 -318 359 2 13 17 20 48 25 124 18 274 94 355 178 l40 42 92 -5 c76
-4 105 -11 174 -41z m-705 -423 l16 -23 -70 0 c-38 0 -84 3 -101 6 l-31 7 32
38 c18 21 44 52 57 70 l24 31 29 -53 c15 -30 35 -64 44 -76z m-68 -100 l152
-1 68 -50 c37 -27 87 -62 110 -76 42 -26 43 -28 27 -46 -19 -21 -188 -109
-213 -112 -9 0 5 -4 33 -7 102 -12 57 -58 -96 -97 -110 -28 -277 -7 -395 51
-46 23 -90 65 -67 65 4 0 -15 22 -42 50 -27 27 -47 51 -44 53 2 2 25 16 52 31
26 15 78 50 115 78 84 65 113 80 132 70 8 -4 84 -8 168 -9z m-1238 -147 c0 -3
-4 -8 -10 -11 -5 -3 -10 -1 -10 4 0 6 5 11 10 11 6 0 10 -2 10 -4z m20 -26 c0
-5 -4 -10 -10 -10 -5 0 -10 5 -10 10 0 6 5 10 10 10 6 0 10 -4 10 -10z m1826
-105 c26 -14 55 -25 65 -25 35 0 19 -32 -48 -99 -109 -108 -329 -207 -518
-232 -229 -30 -517 37 -722 169 -75 48 -153 120 -153 140 0 5 25 19 56 31 l56
24 46 -27 c79 -46 224 -113 287 -135 89 -29 225 -44 350 -38 182 8 361 77 485
185 19 17 38 31 42 32 4 0 28 -11 54 -25z"/>
<path d="M3410 5186 c0 -8 71 -12 76 -4 3 4 -13 8 -35 8 -23 0 -41 -2 -41 -4z"/>
<path d="M3518 5183 c12 -2 32 -2 45 0 12 2 2 4 -23 4 -25 0 -35 -2 -22 -4z"/>
<path d="M3480 5078 c0 -4 9 -8 20 -8 11 0 20 4 20 8 0 4 -9 8 -20 8 -11 0
-20 -4 -20 -8z"/>
<path d="M4100 5040 c0 -5 4 -10 9 -10 6 0 13 5 16 10 3 6 -1 10 -9 10 -9 0
-16 -4 -16 -10z"/>
<path d="M4010 5031 c0 -5 9 -7 20 -4 11 3 20 7 20 9 0 2 -9 4 -20 4 -11 0
-20 -4 -20 -9z"/>
<path d="M5391 5204 l-23 -12 32 -23 c17 -13 34 -22 37 -21 3 2 9 0 12 -5 12
-16 244 -124 319 -148 134 -42 264 -60 417 -59 164 2 228 18 321 81 80 55 109
83 133 131 28 55 27 58 -8 21 -17 -17 -35 -28 -40 -24 -6 3 -11 1 -11 -6 0 -7
-3 -9 -7 -6 -3 4 -12 -1 -19 -11 -8 -10 -13 -12 -14 -4 0 6 -7 12 -16 12 -8 0
-13 -4 -10 -9 3 -4 -5 -6 -19 -4 -13 3 -38 0 -57 -6 -18 -5 -76 -11 -128 -12
-117 -3 -127 -6 -134 -32 -6 -22 -7 -22 -21 -3 -15 19 -15 19 -16 -5 -1 -20
-2 -19 -10 9 l-10 34 -20 -23 c-10 -12 -19 -28 -19 -36 0 -7 -8 -13 -18 -13
-10 0 -24 -6 -31 -12 -10 -9 -12 -9 -7 -1 3 6 2 14 -3 18 -6 3 -7 13 -4 23 6
15 5 15 -11 2 -11 -8 -14 -16 -7 -18 6 -2 11 -8 11 -14 0 -7 -5 -7 -12 -1 -7
5 -23 8 -35 7 -13 -1 -20 3 -16 9 4 6 0 8 -11 4 -14 -6 -16 -3 -11 16 4 15 4
18 -3 8 -5 -7 -15 -11 -21 -7 -7 5 -9 1 -4 -11 3 -10 3 -15 -2 -11 -4 4 -15 2
-24 -5 -14 -11 -14 -10 -2 6 13 16 13 20 0 27 -10 7 -16 4 -21 -8 -5 -14 -7
-14 -8 -2 -2 8 -2 19 -1 23 1 5 -3 6 -9 2 -6 -4 -17 -1 -25 5 -8 7 -24 10 -35
7 -12 -3 -20 0 -20 8 0 8 -12 13 -34 12 -19 0 -32 -5 -29 -10 3 -5 -4 -4 -14
2 -11 6 -24 7 -28 3 -5 -4 -5 -2 -1 5 4 8 -8 15 -36 21 -26 5 -42 14 -40 21 2
8 -4 10 -17 6 -11 -3 -25 1 -34 10 -9 8 -22 15 -31 15 -8 0 -17 4 -21 10 -3 5
-13 6 -21 3 -9 -3 -19 -2 -23 4 -4 6 -15 5 -30 -3z m825 -135 c3 -6 1 -16 -5
-22 -9 -9 -10 -7 -5 7 5 13 4 17 -4 12 -7 -4 -12 -2 -12 3 0 14 17 14 26 0z
m-102 -14 c-4 -8 -8 -15 -10 -15 -2 0 -4 7 -4 15 0 8 4 15 10 15 5 0 7 -7 4
-15z m119 -32 c-7 -2 -19 -2 -25 0 -7 3 -2 5 12 5 14 0 19 -2 13 -5z"/>
<path d="M5660 5129 c0 -5 5 -7 10 -4 6 3 10 8 10 11 0 2 -4 4 -10 4 -5 0 -10
-5 -10 -11z"/>
<path d="M6056 5055 c-3 -8 -1 -15 4 -15 6 0 10 7 10 15 0 8 -2 15 -4 15 -2 0
-6 -7 -10 -15z"/>
<path d="M5326 5924 c-3 -9 -4 -20 -1 -24 3 -5 -9 -3 -25 3 -25 10 -33 9 -40
-3 -7 -12 -11 -10 -19 10 -7 17 -10 20 -10 8 -1 -14 -7 -16 -33 -12 -18 3 -38
7 -45 9 -6 2 -14 -3 -17 -11 -5 -14 -8 -14 -22 0 -14 14 -18 14 -47 0 -19 -10
-32 -13 -35 -6 -4 12 -42 4 -42 -9 0 -5 -9 -9 -20 -9 -11 0 -20 5 -20 10 0 6
-5 10 -11 10 -8 0 -9 -4 0 -13 13 -16 5 -27 -20 -27 -12 0 -16 6 -13 23 2 12
2 16 -2 9 -3 -6 -10 -10 -15 -6 -5 3 -8 0 -7 -8 2 -7 -3 -12 -11 -10 -8 2 -18
-2 -22 -9 -5 -9 -11 -8 -24 4 -9 10 -24 16 -33 16 -16 -1 -16 -2 0 -6 9 -2 19
-10 21 -17 4 -10 -1 -12 -14 -9 -10 3 -19 1 -19 -5 0 -6 -9 -8 -20 -5 -18 5
-20 1 -19 -33 0 -31 2 -35 9 -19 8 19 9 19 9 -2 1 -16 7 -23 21 -23 11 0 20
-5 20 -11 0 -7 10 -9 25 -7 16 3 25 1 25 -7 0 -15 31 -25 80 -25 23 0 30 -3
22 -9 -9 -5 3 -8 31 -7 25 0 43 4 41 8 -3 4 3 5 12 1 13 -5 15 -3 9 8 -7 12
-5 12 6 1 11 -10 11 -14 1 -21 -8 -5 -2 -8 17 -8 17 0 28 4 25 9 -3 4 -2 8 3
9 4 0 16 2 26 4 9 2 17 0 17 -4 0 -4 9 -7 20 -8 11 -1 18 2 15 7 -4 6 6 7 23
4 54 -11 162 63 162 111 0 22 3 25 24 19 21 -5 24 -2 22 19 0 13 -5 23 -11 21
-14 -5 -58 34 -51 45 4 5 2 12 -3 15 -5 3 -12 -1 -15 -10z m-241 -34 c3 -5 -1
-10 -10 -10 -9 0 -13 5 -10 10 3 6 8 10 10 10 2 0 7 -4 10 -10z m102 -1 c-14
-8 -22 -8 -30 0 -8 8 -3 11 19 11 25 -1 27 -2 11 -11z m126 -22 c-3 -5 -11 -6
-19 -3 -7 3 -18 -3 -23 -12 -9 -15 -10 -15 -8 3 1 16 8 21 28 20 15 0 25 -4
22 -8z m-499 -93 c3 -8 2 -12 -4 -9 -6 3 -10 10 -10 16 0 14 7 11 14 -7z"/>
<path d="M3690 5852 c0 -14 -5 -19 -17 -16 -25 6 -45 -10 -37 -30 9 -23 41
-38 64 -31 25 8 28 66 5 85 -12 10 -15 9 -15 -8z"/>
<path d="M4678 5845 c-3 -6 2 -18 11 -27 16 -16 17 -16 17 2 0 10 -3 17 -7 14
-4 -2 -9 1 -11 8 -3 7 -7 8 -10 3z"/>
<path d="M6155 5829 c-10 -15 26 -50 48 -47 29 4 46 36 27 48 -20 13 -67 13
-75 -1z"/>
<path d="M6390 5816 c0 -9 7 -16 16 -16 9 0 14 5 12 12 -6 18 -28 21 -28 4z"/>
<path d="M3316 5812 c-3 -6 1 -13 10 -16 23 -9 28 -2 10 13 -8 7 -17 8 -20 3z"/>
<path d="M7164 5127 c4 -16 2 -27 -6 -29 -7 -3 -6 -7 5 -11 14 -5 17 -1 17 23
0 16 -5 32 -11 36 -8 5 -10 -1 -5 -19z"/>
<path d="M7130 5070 c0 -5 4 -10 9 -10 6 0 13 5 16 10 3 6 -1 10 -9 10 -9 0
-16 -4 -16 -10z"/>
<path d="M3810 4389 c0 -5 5 -7 10 -4 6 3 10 8 10 11 0 2 -4 4 -10 4 -5 0 -10
-5 -10 -11z"/>
<path d="M6608 4093 c7 -3 16 -2 19 1 4 3 -2 6 -13 5 -11 0 -14 -3 -6 -6z"/>
<path d="M5969 3659 l-24 -20 28 17 c15 9 27 18 27 20 0 8 -8 4 -31 -17z"/>
<path d="M4590 3400 c0 -5 5 -10 11 -10 5 0 7 5 4 10 -3 6 -8 10 -11 10 -2 0
-4 -4 -4 -10z"/>
<path d="M5350 3359 c0 -5 5 -7 10 -4 6 3 10 8 10 11 0 2 -4 4 -10 4 -5 0 -10
-5 -10 -11z"/>
<path d="M5380 3360 c0 -5 5 -10 11 -10 5 0 7 5 4 10 -3 6 -8 10 -11 10 -2 0
-4 -4 -4 -10z"/>
<path d="M4925 3350 c-3 -5 -2 -10 4 -10 5 0 13 5 16 10 3 6 2 10 -4 10 -5 0
-13 -4 -16 -10z"/>
<path d="M7080 6039 c0 -5 5 -7 10 -4 6 3 10 8 10 11 0 2 -4 4 -10 4 -5 0 -10
-5 -10 -11z"/>
<path d="M1890 5680 c0 -5 5 -10 10 -10 6 0 10 5 10 10 0 6 -4 10 -10 10 -5 0
-10 -4 -10 -10z"/>
<path d="M7408 5683 c7 -3 16 -2 19 1 4 3 -2 6 -13 5 -11 0 -14 -3 -6 -6z"/>
<path d="M7435 5660 c-3 -6 1 -7 9 -4 18 7 21 14 7 14 -6 0 -13 -4 -16 -10z"/>
<path d="M7487 5651 c-4 -17 -3 -21 5 -13 5 5 8 16 6 23 -3 8 -7 3 -11 -10z"/>
<path d="M7405 5650 c3 -5 8 -10 11 -10 2 0 4 5 4 10 0 6 -5 10 -11 10 -5 0
-7 -4 -4 -10z"/>
<path d="M7447 5629 c7 -7 15 -10 18 -7 3 3 -2 9 -12 12 -14 6 -15 5 -6 -5z"/>
<path d="M7320 5610 c-8 -5 -10 -10 -5 -10 6 0 17 5 25 10 8 5 11 10 5 10 -5
0 -17 -5 -25 -10z"/>
<path d="M1773 2663 c9 -2 23 -2 30 0 6 3 -1 5 -18 5 -16 0 -22 -2 -12 -5z"/>
<path d="M7593 2975 c0 -8 4 -12 9 -9 4 3 8 9 8 15 0 5 -4 9 -8 9 -5 0 -9 -7
-9 -15z"/>
<path d="M6352 2963 c-22 -9 -34 -41 -22 -63 14 -27 40 -27 33 0 -6 23 22 60
45 60 20 0 41 -30 42 -57 0 -29 16 -30 25 -2 11 32 -30 69 -74 68 -20 0 -42
-3 -49 -6z"/>
<path d="M3228 2888 c61 -68 105 -112 90 -93 -42 58 -101 125 -110 125 -5 0 4
-15 20 -32z"/>
<path d="M2066 1943 c6 -4 14 -15 17 -23 5 -11 6 -9 4 4 -1 11 -9 21 -17 23
-10 3 -11 2 -4 -4z"/>
<path d="M2120 1890 c20 -13 33 -13 25 0 -3 6 -14 10 -23 10 -15 0 -15 -2 -2
-10z"/>
<path d="M7760 2370 c-9 -16 -8 -18 5 -14 8 3 13 10 10 14 -3 5 1 11 7 13 10
4 10 6 1 6 -7 1 -17 -8 -23 -19z"/>
<path d="M5167 1728 c-26 -17 -46 -33 -43 -35 5 -5 106 55 106 63 0 9 -17 1
-63 -28z"/>
<path d="M4101 1302 c-13 -25 21 -48 39 -27 9 11 9 15 1 15 -6 0 -11 -5 -11
-11 0 -5 -5 -7 -11 -3 -6 3 -9 15 -6 25 6 24 1 24 -12 1z"/>
<path d="M3889 1293 c-13 -17 -13 -17 6 -3 11 8 22 16 24 17 2 2 0 3 -6 3 -6
0 -17 -8 -24 -17z"/>
<path d="M4053 1277 c16 -11 16 -14 3 -32 -13 -17 -15 -18 -16 -3 0 9 -5 20
-11 24 -9 5 -10 -1 -5 -20 6 -24 5 -26 -12 -17 -28 15 -48 -2 -35 -31 l12 -23
0 23 c1 13 7 22 17 22 8 0 13 -4 10 -9 -3 -5 1 -12 10 -15 10 -4 13 -2 8 6 -5
8 -2 9 9 5 12 -4 17 -1 17 11 0 10 8 18 19 19 14 1 18 -3 14 -15 -4 -15 -3
-15 6 -2 16 22 13 40 -4 34 -9 -4 -15 0 -15 9 0 8 -7 18 -16 21 -25 10 -29 7
-11 -7z"/>
<path d="M4222 1276 c7 -8 15 -12 17 -11 5 6 -10 25 -20 25 -5 0 -4 -6 3 -14z"/>
<path d="M4154 1268 c-14 -22 -13 -38 3 -38 12 0 13 3 4 14 -9 11 -9 15 1 19
7 2 10 7 7 11 -4 4 -11 1 -15 -6z"/>
<path d="M3797 1263 c-10 -10 -8 -43 2 -43 5 0 8 11 7 25 0 14 -1 25 -2 25 0
0 -4 -3 -7 -7z"/>
<path d="M3940 1180 l-25 -20 23 0 c13 0 21 4 18 9 -4 5 0 11 6 14 7 2 11 7 8
10 -3 3 -16 -3 -30 -13z"/>
<path d="M3845 1180 c6 -10 4 -12 -8 -7 -10 3 -17 2 -17 -2 0 -5 -3 -18 -7
-28 -7 -17 -6 -17 11 0 9 9 24 17 33 17 17 0 13 22 -7 28 -8 3 -10 0 -5 -8z"/>
<path d="M7390 1756 c0 -2 7 -7 16 -10 8 -3 12 -2 9 4 -6 10 -25 14 -25 6z"/>
<path d="M5970 1440 c0 -5 5 -10 11 -10 5 0 7 5 4 10 -3 6 -8 10 -11 10 -2 0
-4 -4 -4 -10z"/>
<path d="M6843 1405 c-3 -9 -3 -19 1 -22 3 -4 6 1 6 10 0 8 6 18 13 20 9 4 9
6 -1 6 -7 1 -15 -6 -19 -14z"/>
<path d="M5983 1393 c9 -9 20 -13 24 -9 4 4 1 11 -7 16 -25 16 -35 11 -17 -7z"/>
<path d="M6762 1386 c7 -8 15 -12 17 -11 5 6 -10 25 -20 25 -5 0 -4 -6 3 -14z"/>
<path d="M6054 1349 c-4 -7 -3 -9 4 -5 5 3 13 0 15 -6 4 -9 6 -10 6 -1 1 17
-16 25 -25 12z"/>
<path d="M6560 1348 c0 -4 7 -8 15 -8 8 0 15 4 15 8 0 5 -7 9 -15 9 -8 0 -15
-4 -15 -9z"/>
<path d="M6273 1311 c0 -16 5 -29 11 -28 6 1 10 -4 9 -10 -2 -7 3 -13 10 -13
7 0 13 9 14 20 1 13 -2 18 -9 14 -8 -5 -9 -1 -5 10 4 9 3 15 -2 11 -6 -3 -14
2 -19 11 -7 12 -9 8 -9 -15z"/>
<path d="M6235 1311 c-3 -5 -1 -12 5 -16 6 -4 7 -11 4 -17 -4 -6 -2 -8 4 -4 6
3 10 15 9 26 -1 21 -12 26 -22 11z"/>
<path d="M6185 1300 c-3 -5 -1 -10 4 -10 6 0 11 5 11 10 0 6 -2 10 -4 10 -3 0
-8 -4 -11 -10z"/>
<path d="M5135 1258 c-17 -42 -11 -47 20 -18 21 20 28 22 50 12 35 -16 31 -39
-7 -47 -25 -6 -28 -9 -16 -16 9 -5 30 -6 47 -3 24 5 31 12 31 31 0 44 -28 73
-72 73 -35 0 -41 -4 -53 -32z"/>
<path d="M5035 1060 c3 -5 8 -10 11 -10 2 0 4 5 4 10 0 6 -5 10 -11 10 -5 0
-7 -4 -4 -10z"/>
<path d="M4741 788 c-6 -10 -11 -61 -11 -114 l0 -97 123 7 c67 3 165 9 218 12
89 6 98 5 118 -15 42 -42 23 -68 -49 -72 -30 -1 -64 -7 -75 -12 -11 -6 -34
-10 -52 -9 -17 2 -35 -2 -38 -8 -5 -8 -13 -6 -24 4 -15 14 -36 15 -133 10
-111 -7 -116 -8 -112 -28 4 -18 31 -199 33 -217 1 -3 25 -11 54 -18 38 -9 138
-12 365 -9 264 2 314 5 323 18 7 10 8 74 4 180 -3 94 -1 178 4 195 7 22 10
-13 11 -130 2 -97 5 -148 10 -130 l8 30 3 -35 c1 -19 4 -46 5 -60 3 -42 4 -46
14 -29 12 21 24 510 13 526 -6 9 -113 13 -405 15 -370 3 -397 2 -407 -14z
m796 -250 c-3 -8 -6 -5 -6 6 -1 11 2 17 5 13 3 -3 4 -12 1 -19z m-654 -65 c-7
-2 -19 -2 -25 0 -7 3 -2 5 12 5 14 0 19 -2 13 -5z m20 -30 c-13 -2 -33 -2 -45
0 -13 2 -3 4 22 4 25 0 35 -2 23 -4z"/>
<path d="M5527 174 c-15 -13 -37 -24 -48 -24 -11 0 -18 -4 -14 -9 7 -12 64 4
83 23 26 26 7 35 -21 10z"/>
<path d="M5240 140 c-16 -5 18 -8 94 -9 66 -1 117 1 115 3 -9 8 -186 14 -209
6z"/>
</g>
</svg>
