<?xml version="1.0" standalone="no"?>
<!DOCTYPE svg PUBLIC "-//W3C//DTD SVG 20010904//EN"
 "http://www.w3.org/TR/2001/REC-SVG-20010904/DTD/svg10.dtd">
<svg version="1.0" xmlns="http://www.w3.org/2000/svg"
 width="50.000000pt" height="50.000000pt" viewBox="0 0 50.000000 50.000000"
 preserveAspectRatio="xMidYMid meet">

<g transform="translate(0.000000,50.000000) scale(0.100000,-0.100000)"
fill="#FFFFFF" stroke="none">
<path d="M214 471 c8 -13 -21 -22 -83 -26 -51 -4 -76 -18 -64 -38 3 -4 13 -1
23 8 14 13 19 13 29 2 15 -19 -11 -41 -39 -32 -16 5 -22 0 -31 -21 -5 -16 -7
-39 -4 -52 6 -23 7 -23 25 -7 10 9 25 15 32 13 13 -5 40 24 51 54 5 15 18 17
77 16 39 0 73 -4 75 -9 3 -4 -4 -5 -15 -2 -14 4 -20 0 -20 -11 0 -9 4 -16 8
-16 5 0 9 -7 9 -15 0 -8 -3 -13 -5 -10 -3 3 -10 -5 -17 -18 -6 -12 -19 -21
-28 -21 -14 2 -15 -1 -6 -12 9 -11 6 -16 -15 -24 -30 -11 -66 -3 -44 11 10 7
9 9 -4 9 -20 0 -22 -8 -10 -28 9 -13 72 -13 72 0 0 4 7 8 16 8 8 0 12 -4 9
-10 -4 -6 8 -10 29 -10 19 0 37 4 40 8 3 5 -8 9 -25 9 -16 0 -34 4 -39 9 -13
13 14 45 39 47 13 1 20 6 17 14 -3 7 -1 13 4 13 6 0 10 -9 10 -21 0 -11 5 -29
10 -40 8 -14 7 -27 -5 -49 -8 -16 -14 -32 -13 -34 2 -2 -1 -8 -6 -13 -5 -5 -6
-3 -2 5 9 15 -6 16 -21 1 -14 -14 -73 -23 -73 -10 0 6 -6 8 -14 5 -7 -3 -30
10 -50 29 -36 34 -45 60 -26 72 6 3 10 16 10 28 -1 20 -2 21 -14 5 -8 -11 -20
-15 -34 -11 -16 4 -22 1 -22 -11 0 -10 6 -13 15 -10 9 4 15 0 16 -7 1 -15 4
-31 15 -66 5 -17 2 -23 -10 -23 -9 0 -16 -6 -16 -14 0 -9 7 -12 20 -9 24 6 26
-9 4 -28 -13 -10 -17 -10 -25 2 -6 10 -9 1 -9 -28 0 -31 5 -45 19 -52 10 -6
21 -8 24 -5 3 3 4 -6 3 -20 l-3 -26 111 0 112 0 11 31 c7 17 16 28 22 25 5 -4
12 2 16 13 8 26 -4 72 -19 70 -25 -3 -37 2 -31 12 4 6 13 8 21 5 11 -4 12 -2
4 14 -5 10 -15 22 -20 25 -6 3 -10 11 -10 16 0 6 5 7 10 4 6 -4 10 8 10 30 0
21 4 34 10 30 6 -4 9 4 8 19 -2 18 -6 22 -14 15 -8 -6 -14 -4 -18 7 -4 10 2
23 16 35 13 10 19 18 14 19 -5 0 -3 6 3 14 10 11 10 20 0 38 -12 22 -12 22
-20 3 -4 -11 -8 -15 -8 -9 -1 5 -8 19 -16 30 -14 19 -14 19 -11 -1 3 -18 -1
-20 -38 -19 -63 2 -70 3 -62 11 3 4 16 8 28 10 30 5 35 12 18 23 -19 12 -63
13 -56 1z m-19 -342 c4 -6 24 -7 50 -4 26 4 45 3 49 -3 8 -13 -69 -59 -112
-68 -29 -6 -32 -4 -26 12 4 11 14 27 22 37 13 14 13 17 1 17 -22 0 -42 17 -35
29 8 12 39 0 51 -20z m-75 -24 c-7 -9 -15 -13 -18 -10 -3 2 1 11 8 20 7 9 15
13 18 10 3 -2 -1 -11 -8 -20z m249 -7 c-12 -22 -12 -22 -34 2 -18 20 -18 21
12 18 27 -2 30 -5 22 -20z m-215 -3 c-6 -16 -34 -21 -34 -7 0 13 11 22 26 22
8 0 11 -6 8 -15z m184 -17 c4 -19 -21 -24 -52 -12 -13 5 -14 9 -5 21 16 19 53
13 57 -9z m-75 -35 c-7 -2 -19 -2 -25 0 -7 3 -2 5 12 5 14 0 19 -2 13 -5z"/>
<path d="M165 360 c-10 -11 -13 -20 -7 -20 5 0 8 -9 5 -20 -4 -15 0 -20 16
-20 26 0 40 28 20 41 -11 7 -10 9 4 9 11 0 17 6 15 13 -7 20 -33 19 -53 -3z"/>
</g>
</svg>
